<?xml version="1.0" encoding="utf-8"?>
<!-- Generator: $$$/GeneralStr/196=Adobe Illustrator 27.6.0, SVG Export Plug-In . SVG Version: 6.00 Build 0)  -->
<svg version="1.1" id="Calque_1" xmlns="http://www.w3.org/2000/svg" xmlns:xlink="http://www.w3.org/1999/xlink" x="0px" y="0px"
	 viewBox="0 0 600 600" style="enable-background:new 0 0 600 600;" xml:space="preserve">
<style type="text/css">
	.st0{fill-rule:evenodd;clip-rule:evenodd;fill:#FFFFFF;}
	.st1{fill-rule:evenodd;clip-rule:evenodd;}
</style>
<g id="head_mono_Bangs-2">
	<path id="_-Background" class="st0" d="M431.5,201.4c-51.6-34.1-154.9-30.4-211.6-9.5c-55.4,17.6-74.8,66.5-84,119.4
		c-11.2,59.4-9.7,145.1,70.7,144c11.3,5.5,23.8,7.8,35.5,12.4c16,5.5,31.7,12,47.9,16.8c32,10.3,67.6,9.4,97.9-5.7
		c16.8-8.1,23.7-20.7,34.7-34.1c31.9-39.1,47.9-95,46.5-144.7C466.6,264.9,460.9,224.4,431.5,201.4L431.5,201.4z"/>
	<path id="_-Ink" class="st1" d="M496.8,345.4c-5.3-32.8-6.8-66.2-13.7-98.8c-6.5-30.7-18.7-59.6-40-83c-19-20.9-43.7-36.3-70.1-46
		c-51.5-19-110.8-14.7-160.6,7.5c-46.6,20.7-83.8,59-105.5,105c-14.1,29.9-21.2,61.6-24.3,94.4c-3.5,36.4-3.9,73.2-5.3,109.8
		c-0.2,4.5-0.4,9-0.5,13.5c-0.1,4.9,1.9,9.3,3.6,13.9c0.1,0.3,0.3,0.6,0.5,0.9c-1.2,0.1-2.5,0.3-3.7,0.5c-1.4,0.2-1.3,2.4,0,2.7
		c11.1,2.3,22.5,2.6,33.8,3.1c11.7,0.6,23.4,0.9,35.1,1.3c11.4,0.4,22.9,0.8,34.3,1.2c6,0.2,12,0.4,18,0.6c2.9,0.1,5.7,0.2,8.6,0.3
		c1.4,0,2.9,0.1,4.3,0.1c1.2,0,3,0.8,3.2-0.1c0.2,0.1,0.4,0.2,0.7,0.3c0.3,0.1,0.5,0.3,0.8,0.5c1.4,1,3.5,0.8,4.9,0
		c0.1-0.1,0.3-0.2,0.4-0.2c1.1-0.6,1.8-1.5,2.2-2.6c5.9,7.1,16.2-0.9,10.2-8.4c-3.2-4-35.3-102.8-22-178.1l53.2-7.1
		c6.5-0.7,15.8-1.6,27.8-2.9c3-9.6,4.9-16,5.7-19.1c0.1-0.3,0.2-0.7,0.3-1c1.3,2.2,2.5,4.5,3.8,6.7l6.6,13.4
		c64.6-1.1,104.9-1.6,120.7-1.5c0.4,0,2.3,28.9,1.5,41.6c-1.8,25.5-3.6,51.1-6.2,76.6c-1.6,16.3-5.6,32.3-11.6,47.4
		c-9.4,23.8-36.6,46.3-63.1,46.3c-16.5,0-53.8-13.4-59.3-16.1c-5.4-2.7-8.7,4.7-3.7,7.6c10,6,37.7,18.6,63,18.6
		c36.8,0,64.5-34.9,67.9-39.9c33.5-1.8,67.7-1,101.1,2.3c2.8,0.3,5.2-3.1,4.3-5.7C511.7,416.8,502.5,381.4,496.8,345.4L496.8,345.4z
		"/>
</g>
<g id="face_Smile-Teeth-Gap">
	<path id="_-Ink-2" class="st1" d="M350.7,360c6.5,4,16.4,13.2,9.4,23c-8.2,8.6-20.1-1.3-26-5.8c-5.4-3.5-11.5,5.5-6.5,9.5
		C370,418,387.1,361,354,355.3C350.4,354.7,349,358.7,350.7,360L350.7,360z M291.9,284.5l1.6-0.3l0.8-0.1c4.9-0.8,10.6-1.3,13.9,2.5
		c1.9,2.1,2.5,6.1,0,8.1c-4.4,3.6-9.4,2.2-14.7,2.5c-4.4,0.2-8.6,1-12.8,2.2c-9.3,2.6-16.8,7.5-24.7,12.8c-1,0.7-2.1-0.6-1.6-1.6
		c4.6-8.9,13.4-16.3,22.3-20.8C281.5,287.4,286.7,285.4,291.9,284.5L291.9,284.5z M334.8,408.1c14.2,1,44.9-5.7,57.6,4.4
		c48,60-142.4,75.4-121.8,9C283.7,400.1,313.8,408.8,334.8,408.1z M332.4,444.3c-3.5-0.3-7.8,2.5-8.8,4.6s-0.6,6.7-0.6,7.5
		c6.1,0.6,12.3,0.7,18.4,0.3C339.8,451.5,339.8,445.1,332.4,444.3z M360.6,453.2c-1-6.5-5.7-8.1-9.5-7.1c-3.9,1-6.2,5.5-5.9,9.5
		c0,0.3-0.1,0.5-0.2,0.7C350.3,455.6,355.5,454.6,360.6,453.2L360.6,453.2z M317.2,445.5c-2.2-3.4-7.5-5-10.9-4.4
		c-5.5,1.2-6.2,8.2-6.2,9.6c5.1,1.9,10.5,3.2,15.6,4.2c1,0.2,2.1,0.4,3.1,0.6l0.1-0.9C319.1,452.9,319.2,448.6,317.2,445.5
		L317.2,445.5z M379.6,445c-5.7-8.8-17.8-2.5-16.8,7.1c1.1-0.3,2.2-0.7,3.2-1.1C370.5,449.4,375.4,447.6,379.6,445L379.6,445z
		 M335.1,414.8c-7.6-0.7-13.9-0.5-18.8,0.5l-0.1,1.7c-0.5,5.8-1.3,11.4,1.8,13.7c2.4,1.9,10.6,1.7,16,0.3
		C335.3,430.6,337,418.7,335.1,414.8z M346.8,414.1c-1.2,5.7-1.8,12.5,0.7,14.6c2.6,2.2,10.9,1.9,13.1,0.4c1.9-1.3,1.9-7,1.1-13.5
		C357.5,414.6,350.2,414.1,346.8,414.1L346.8,414.1z M312.9,415.3l-2.5,0l-1.4,0c-3.6,0.1-7.4,0.3-11.1,1.1
		c-7.2,15.6,19.2,18.3,15.1-0.5L312.9,415.3L312.9,415.3z M365.1,415.7l0,0.9c-0.2,4.4-0.1,10.2,2.4,11.7c3.6,2.3,10.3,1.9,13.9-8.8
		C380.1,416.4,367.4,415.9,365.1,415.7L365.1,415.7z M295,322.6c1.5,0,3,0.5,4.3,1.5c1.3,0.9,2.5,2.3,3.5,4c1.9,3.2,3,7.8,3,12.7
		c0,5-1.2,9.5-3,12.7c-1,1.7-2.2,3.1-3.5,4c-1.3,1-2.8,1.5-4.3,1.5c-1.5,0-3-0.5-4.3-1.5c-1.3-0.9-2.5-2.3-3.5-4
		c-1.9-3.2-3-7.8-3-12.7c0-5,1.2-9.5,3-12.7c1-1.7,2.2-3.1,3.5-4C292,323.1,293.5,322.6,295,322.6z M391.8,322.6
		c1.5,0,3,0.5,4.3,1.5c1.3,0.9,2.5,2.3,3.5,4c1.9,3.2,3,7.8,3,12.7c0,5-1.2,9.5-3,12.7c-1,1.7-2.2,3.1-3.5,4c-1.3,1-2.8,1.5-4.3,1.5
		s-3-0.5-4.3-1.5c-1.3-0.9-2.5-2.3-3.5-4c-1.9-3.2-3-7.8-3-12.7c0-5,1.2-9.5,3-12.7c1-1.7,2.2-3.1,3.5-4
		C388.8,323.1,390.2,322.6,391.8,322.6z M378.6,280.5l1.2,0.2l0.8,0.2c13.4,2.9,30.3,8.5,36.5,21.5c0.2,1.9,0,2.3-0.2,2.5l-0.1,0.1
		c-0.2,0.2-0.3,0.5-1.1,0.8c-0.2,0-0.5-0.1-0.7-0.2c-2.9-0.8-5.2-1.8-7.5-2.9l-2.4-1.2c-2.8-1.4-5.7-2.7-8.7-3.7
		c-6.4-2.1-13-3.6-19.8-4.4c-1.5-0.2-2.9-0.7-4-1.5c-1-0.8-1.9-1.9-2.2-3.4c-0.5-1.9-0.3-3.4,0.7-5.1c0.8-1.3,1.9-2.2,3.1-2.7
		C375.7,280.3,377.2,280.2,378.6,280.5L378.6,280.5z"/>
</g>
</svg>
