<?xml version="1.0" encoding="UTF-8"?>
<svg id="Calque_1" data-name="Calque 1" xmlns="http://www.w3.org/2000/svg" viewBox="0 0 447.76 388.76">
  <defs>
    <style>
      .cls-1 {
        fill: #fff;
      }

      .cls-1, .cls-2 {
        fill-rule: evenodd;
      }
    </style>
  </defs>
  <g id="head_mono_Bangs-2" data-name="head/mono/Bangs-2">
    <path id="_-Background" data-name="ðŸŽ¨-Background" class="cls-1" d="m355.42,95.76c-51.56-34.13-154.85-30.42-211.6-9.51-55.38,17.56-74.77,66.5-83.96,119.37-11.18,59.42-9.67,145.08,70.69,144.04,11.3,5.46,23.82,7.83,35.51,12.36,16,5.53,31.69,11.95,47.93,16.8,31.98,10.3,67.56,9.4,97.9-5.67,16.76-8.1,23.7-20.7,34.66-34.14,31.89-39.08,47.93-95.02,46.49-144.72-2.52-34.99-8.31-75.5-37.62-98.53Z"/>
    <path id="_-Ink" data-name="ðŸ–-Ink" class="cls-2" d="m420.66,239.81c-5.29-32.84-6.76-66.23-13.68-98.81-6.52-30.66-18.7-59.63-39.99-83-19.05-20.91-43.68-36.27-70.13-46-51.51-18.96-110.76-14.67-160.59,7.46-46.64,20.71-83.84,59.01-105.53,104.99-14.09,29.87-21.17,61.63-24.32,94.41-3.49,36.41-3.87,73.2-5.29,109.75-.17,4.51-.42,9.02-.48,13.53-.07,4.94,1.93,9.27,3.56,13.86.11.33.27.64.47.93-1.23.15-2.45.33-3.68.53-1.37.21-1.31,2.44,0,2.71,11.1,2.26,22.52,2.58,33.81,3.14,11.7.58,23.42.9,35.14,1.29,11.43.39,22.86.77,34.29,1.16,6,.21,12,.41,18.01.61,2.86.09,5.71.2,8.57.29,1.42.05,2.86.09,4.28.15,1.16.03,3.04.77,3.16-.08.21.13.45.24.69.32.27.15.54.32.8.51,1.4.96,3.52.84,4.93,0,.13-.08.27-.16.4-.25,1.05-.63,1.79-1.53,2.2-2.56,5.86,7.08,16.25-.87,10.25-8.37-3.22-4.03-35.29-102.83-22.02-178.09l53.23-7.05c6.49-.66,15.77-1.64,27.84-2.95,2.96-9.64,4.86-16.02,5.7-19.12.09-.34.19-.69.29-1.04,1.27,2.24,2.55,4.47,3.83,6.7l6.57,13.35c64.62-1.08,104.86-1.57,120.7-1.47.4,0,2.31,28.89,1.45,41.62-1.75,25.55-3.61,51.08-6.2,76.57-1.65,16.32-5.64,32.32-11.57,47.36-9.37,23.76-36.59,46.34-63.13,46.34-16.52,0-53.84-13.38-59.28-16.08-5.44-2.7-8.67,4.67-3.72,7.62,10.03,5.97,37.7,18.65,63,18.65,36.75,0,64.49-34.87,67.9-39.87,33.46-1.83,67.69-.99,101.11,2.33,2.8.27,5.22-3.1,4.32-5.68-12-34.35-21.13-69.79-26.91-105.73Z"/>
  </g>
  <g id="face_Smile-Teeth-Gap" data-name="face/Smile-Teeth-Gap">
    <path id="_-Ink-2" data-name="ðŸ–-Ink" class="cls-2" d="m274.6,254.33c6.51,3.96,16.42,13.18,9.42,22.99-8.24,8.65-20.11-1.27-25.95-5.75-5.42-3.48-11.51,5.46-6.48,9.52,42.25,31.28,59.4-25.72,26.3-31.41-3.64-.63-5,3.43-3.29,4.65Zm-58.8-75.44l1.62-.28.83-.14c4.85-.8,10.59-1.34,13.94,2.47,1.88,2.13,2.52,6.1,0,8.14-4.44,3.59-9.35,2.2-14.67,2.51-4.38.25-8.6.98-12.82,2.18-9.27,2.65-16.82,7.48-24.73,12.79-1.04.7-2.1-.63-1.6-1.6,4.57-8.95,13.42-16.3,22.29-20.78,4.73-2.39,9.91-4.38,15.15-5.29Zm42.86,123.62c14.16,1.03,44.85-5.73,57.59,4.41,48.03,59.97-142.37,75.39-121.81,9.04,13.1-21.45,43.22-12.83,64.22-13.45Zm-2.43,36.2c-3.5-.29-7.75,2.49-8.78,4.63-1.03,2.14-.63,6.67-.6,7.46,6.12.62,12.3.71,18.44.31-1.6-5.28-1.65-11.6-9.06-12.4Zm28.27,8.85c-.98-6.55-5.67-8.1-9.46-7.12-3.88,1-6.16,5.47-5.91,9.45.02.27-.14.51-.25.73,5.27-.62,10.5-1.65,15.62-3.06Zm-43.43-7.67c-2.21-3.36-7.48-4.98-10.86-4.39-5.52,1.16-6.17,8.17-6.17,9.6,5.09,1.94,10.49,3.23,15.65,4.25,1.04.21,2.08.39,3.12.56l.07-.85c.13-1.82.22-6.1-1.8-9.18Zm62.42-.55c-5.66-8.75-17.82-2.49-16.81,7.08,1.08-.34,2.16-.7,3.23-1.07,4.45-1.55,9.32-3.39,13.59-6.01Zm-44.54-30.16c-7.61-.69-13.86-.45-18.82.47l-.15,1.66c-.55,5.75-1.26,11.4,1.76,13.71,2.45,1.88,10.59,1.7,16.05.34,1.35-.34,3.1-12.26,1.16-16.18Zm11.77-.69c-1.22,5.67-1.79,12.55.66,14.59,2.59,2.16,10.91,1.87,13.09.43,1.91-1.26,1.86-7.04,1.15-13.54-4.22-.99-11.56-1.48-14.9-1.48Zm-33.96,1.21l-2.49.02-1.41.02c-3.57.06-7.42.27-11.05,1.06-7.23,15.62,19.17,18.31,15.09-.53l-.13-.58Zm52.21.38l-.05.88c-.22,4.39-.07,10.16,2.36,11.72,3.58,2.3,10.29,1.85,13.93-8.76-1.2-3.17-13.97-3.61-16.24-3.85Zm-70.05-93.13c1.53,0,2.99.52,4.32,1.48,1.31.94,2.5,2.32,3.48,4.04,1.87,3.25,3.04,7.75,3.04,12.71s-1.17,9.46-3.04,12.71c-.99,1.72-2.17,3.1-3.48,4.04-1.33.96-2.79,1.48-4.32,1.48s-2.99-.52-4.32-1.48c-1.31-.94-2.5-2.32-3.48-4.04-1.87-3.25-3.04-7.75-3.04-12.71s1.17-9.46,3.04-12.71c.99-1.72,2.17-3.1,3.48-4.04,1.33-.96,2.79-1.48,4.32-1.48Zm96.73,0c1.53,0,2.99.52,4.32,1.48,1.31.94,2.5,2.32,3.48,4.04,1.87,3.25,3.04,7.75,3.04,12.71s-1.17,9.46-3.04,12.71c-.99,1.72-2.17,3.1-3.48,4.04-1.33.96-2.79,1.48-4.32,1.48s-2.99-.52-4.32-1.48c-1.31-.94-2.5-2.32-3.48-4.04-1.87-3.25-3.04-7.75-3.04-12.71s1.17-9.46,3.04-12.71c.99-1.72,2.17-3.1,3.48-4.04,1.33-.96,2.79-1.48,4.32-1.48Zm-13.16-42.07l1.24.25.82.17c13.36,2.87,30.29,8.54,36.55,21.51.24,1.87-.01,2.27-.22,2.54l-.07.09c-.17.22-.31.53-1.12.79-.23-.05-.45-.11-.68-.17-2.93-.77-5.24-1.82-7.48-2.92l-2.43-1.2c-2.82-1.38-5.66-2.71-8.68-3.7-6.43-2.1-13.05-3.58-19.76-4.36-1.46-.17-2.86-.66-3.96-1.5-1.05-.8-1.85-1.91-2.22-3.38-.47-1.9-.34-3.35.68-5.06.77-1.29,1.87-2.18,3.13-2.7,1.29-.52,2.75-.65,4.21-.36Z"/>
  </g>
</svg>