<?xml version="1.0" encoding="UTF-8"?>
<svg id="Calque_1" data-name="Calque 1" xmlns="http://www.w3.org/2000/svg" viewBox="0 0 451.21 484.13">
  <defs>
    <style>
      .cls-1 {
        fill: #fff;
      }

      .cls-1, .cls-2 {
        fill-rule: evenodd;
      }
    </style>
  </defs>
  <g id="head_mono_Buns" data-name="head/mono/Buns">
    <path id="_-Background" data-name="ðŸŽ¨-Background" class="cls-1" d="m386.07,180.99c-29.59-41.91-103.95-46.64-150.95-46.37-92.81-.77-112.24,105.91-117.09,180.66-9.9,1.68-19.53,5.14-26.06,12.91-7.95,9.47-10.7,25.73-3.24,36.33,4.95,7.03,12.77,9.39,20.96,9.78,27.09-2.59,32.65,21.56,45.99,39.67,34.24,46.26,93.56,61.26,147.97,61.49,18.48.49,40.74,1.88,52.58-15.51,37.38-64.79,38.19-150.72,40.5-224.14.32-18.8.24-38.7-10.64-54.83h0Z"/>
    <path id="_-Ink" data-name="ðŸ–-Ink" class="cls-2" d="m222.22,5.22c3.35-5.06,10.69-7.02,15.78-3.27,4.24-2.62,9.57-2.07,13.38,1.12,4.61-2.72,10.32-1.62,13.94,2.17,5.79-3.16,13.43-.83,16.52,5.17,5.84-.65,11.34,3.18,12.9,8.71.28.22.55.45.82.68,3.5.17,6.82,1.54,8.78,4.79.98,1.63,1.43,3.53,1.37,5.41,2.09,1.13,3.78,2.99,4.51,5.39.68,2.25.42,4.48-.47,6.43,2.91,3.1,3.68,7.93,1.62,11.82.85,1.46,1.3,3.2,1.23,4.99-.1,2.66-1.34,4.81-3.02,6.65,2.11,3.81,1.29,8.71-2.15,11.38-1.97,7-6.97,11.65-14.62,14.51-3.84,1.43-7.86,2.54-11.96,3.35,16.4,2.21,32.53,6.09,48.03,11.87.84.31,1.56.19,2.11-.17.34.18.68.34,1.02.53,4.27,2.34,8.45,4.88,12.53,7.6,0-.45,0-.9.03-1.36-.08-3.69.31-7.33,1.29-10.84-1.28-1.75-2.24-3.74-2.77-5.8-1.3-5.13,1.18-12.42,5.63-14.18,1.56-4.33,5.11-7.46,9.46-8.7.35-.31.71-.61,1.12-.89.92-.63,1.92-1.06,2.95-1.31.54-2.35,1.85-4.51,4.02-6.02,3.06-2.14,6.69-2.37,9.87-1.21.61-.2,1.22-.38,1.84-.53,5.13-4.36,13.12-4.04,17.63,1.06,3.1-1.42,6.74-1.48,9.91.43,2.54,1.52,4.11,3.98,4.73,6.68,4.8.15,9.19,3.33,10.58,8.09,4.42.5,8.04,3.96,8.81,8.32,2.82.39,5.43,1.72,7.02,4.36.73,1.22,1.13,2.55,1.23,3.89,1.43.68,2.71,1.72,3.67,3.08,1.69,2.37,2.02,5.14,1.4,7.75.14.29.3.57.44.86.46.98.83,2.03,1.16,3.1,1.49,2.15,2.18,4.77,2.04,7.4.32,1.11.62,2.23.88,3.35,1.01,4.41,1.38,9.1.69,13.59-.34,2.17-.83,4.31-1.53,6.38-.07.39-.19.76-.32,1.11-.39,1.63-.88,3.24-1.51,4.81-1.51,2-3.09,3.95-4.75,5.83-1.4,2.1-3,4.04-4.8,5.82-1.3,1.28-2.73,2.48-4.24,3.55-3.01,2.41-6.38,4.29-9.97,5.52-.64-.13-1.29-.24-1.93-.34-4.08,2.25-10.5,2.5-14.43,2.49-4.33-.02-8.29-1.11-11.59-3.17.38.76.76,1.52,1.15,2.28-.1.05-.2.1-.28.17-.71-1.18-1.51-2.23-2.44-2.98-1.28-1.03-3.34-1.12-4.23.54h0l-.05.09c-.47.89-.41,1.74-.05,2.44.13.19.26.38.39.57.05.05.09.11.14.16h-.02c1.22.99,2.43,3.4,3.57,5.75.77,1.37,1.51,2.76,2.2,4.18.4.59,1.12,1.12,1.88,1.27-.15,1.13.37,2.3,1.23,2.88.22-.45.5-.92.85-1.39,3.86-5.24,11.43-7.5,17.14-5.11,1.14-.19,2.28-.35,3.44-.44,3.77-.25,7.59.05,11.31.83,1.15.69,2.26,1.47,3.29,2.36.87.75,1.68,1.54,2.43,2.36.58.44,1.16.9,1.72,1.38,2.28,1.23,3.96,3.58,5.36,5.92,1.12,1.58,2.09,3.26,2.94,5.03,3.91,6.69,8.43,15.01,4.9,21.59.38.71.65,1.5.81,2.35.49,2.71-.51,4.79-1.83,6.81.17,1.41.27,2.77.34,3.97.42,6.73-1.12,15.95-7.05,18.69-.09.11-.19.22-.28.33-.46.74-1.16,1.39-2.07,1.86-.23.16-.46.31-.69.44-.11.09-.22.16-.33.25.12-.13.24-.27.37-.4-3.28,1.31-6.45,1.58-9.83,1.18-2.09.76-4.19,1.32-5.96,1.76-5.52,1.36-12.64,2.45-18.02.13-1.57-.68-2.87-1.57-3.85-2.64.08,4.16.2,8.33.38,12.49.37,10.53.35,21.04.27,31.58-.09,11.85-.42,23.72-1.06,35.56-.3,5.95-.77,11.89-1.41,17.81-.54,5.77-1.17,11.53-1.89,17.28-1.71,11.81-4.54,23.71-7.99,35.12-1.5,4.95-3.14,9.97-5.01,14.87-.79,2.25-1.62,4.48-2.53,6.69-4.78,11.57-10.74,22.73-18.79,32.37-4.4,5.26-9.25,9.99-14.67,13.96-4.35,3.39-9.06,6.26-14.24,8.53-11.13,4.86-23.55,5.96-35.58,5.78-4.68-.06-9.66-.91-14.29-1.68-3.55-.58-7.15-1.36-10.72-2.28-3.16-.74-6.28-1.59-9.36-2.58-3.71-.98-7.26-2.39-10.64-4.21h0l-5.99-2.25c-2.5-.94-4.94-2.06-7.3-3.35h0l-6.52-3.04c-2.7-1.3-5.33-2.73-7.9-4.3-.27-.14-.57-.39-.69-.66-.66-.37-1.34-.72-2-1.09-.11-.05-.03-.37.12-.67-.12-.24-.1-.51.22-.75.24-.19.63-.13,1.03,0-.04-.03-.06-.05-.09-.08-.45-.24-.89-.48-1.33-.72-.45-.24-.52-.87-.1-1.2.12-.09.25-.13.39-.14h-.03c-.08-.06-.02-.31.1-.59-.22-.29-.3-.64.1-.94.58-.46,1.95.39,2.44.66.57.31,1.14.61,1.71.92.04-.08.11-.15.22-.22-.83-.44-1.66-.89-2.49-1.34-.51-.27-1.18-.83-.5-1.36.54-.43,1.93.31,2.59.68.08-.06.17-.09.28-.11-.29-.16-.59-.31-.88-.48-.81-.45-.26-1.85.57-1.38h0l.3.18c.6-.05,1.44.44,1.83.66,2.81,1.77,5.73,3.31,8.77,4.64,2.05.97,4.1,1.93,6.17,2.86,2.03,1.01,4.12,1.88,6.26,2.61,5.39,2.1,10.84,4.06,16.34,5.87,7.71,2.11,15.69,3.81,23.69,4.47,1.04.08,2.08.15,3.12.19,2.28-.02,4.56-.03,6.83-.04,4.42-.46,8.85-.91,13.26-1.36,1.54-.22,3.05-.48,4.54-.8.78-.19,1.56-.39,2.33-.61.27-.04.54-.09.81-.13,1.89-.5,3.75-1.1,5.61-1.8,1.17-.48,2.32-.98,3.47-1.51,3.8-1.77,7.53-4.1,11.05-6.78h0l13.22-13.16,4.03-5.49c5.2-7.44,9.32-15.73,12.74-24.19h0l5.44-15.67c.57-1.88,1.1-3.77,1.62-5.66,1.03-4.24,2.06-8.47,3.1-12.7.34-1.55.67-3.1,1-4.64,1.98-9.61,3.08-19.37,4.02-29.12,1.72-17.75,2.19-35.56,2.32-53.38.08-10.65,0-21.3-.22-31.95-.13-6.17-.22-12.35-.31-18.52-.12-6.55-.24-13.11-.41-19.66,0-.14.04-.27.12-.38-.02-.77-.03-1.54-.04-2.32,0-.51.19-.74.48-.78-.05-4.68-.09-9.34-.1-14.01,0-.31.14-.5.33-.62h0v-1.18c-.78-3.25-1.84-6.43-3.21-9.47-.47-1.09-.99-2.16-1.56-3.2-.71-1.56-1.63-2.98-2.76-4.28-.94-1.59-2.1-3-3.45-4.25h0l-1.65-1.18c-.46-.24-1.13-.66-1.72-1.15h0l-3.19-1.97c-.62-.32-.22-1.13.22-1.35h0v-.03c-.1-.04-.21-.1-.32-.2-1.29-1.22-2.64-2.37-4.04-3.45-.25.1-.55.06-.77-.13-.83-.77-1.67-1.52-2.53-2.23-1.93-1.27-3.95-2.42-6.06-3.45-3.38-1.6-6.85-2.97-10.4-4.14-.77-.25-1.54-.48-2.31-.7-1.09-.05-2.18-.11-3.28-.16-40.66-1.78-81.44-1.03-122.01,2.24-10,.81-19.98,1.77-29.94,2.88-8.77.98-19.28.95-27.34,4.96-.34.17-.67.35-.98.54.63,4.03,2.27,7.97,3.71,11.77,2.21,5.87,4.19,11.84,3.99,18.2-.14,4.43-1.09,8.69-2.46,12.85-.7,5.93-2.55,11.67-4.52,17.3-9.66,27.71-14.92,56.07-14.38,85.48.01.79-.17,1.48-.48,2.06.18,1.29.35,2.57.56,3.86.81,4.96-5.73,7.42-7.99,4.14-.15.15-.36.25-.56.27-.57.05-1.52-.89-1.79-1.32-.35-.65-.72-1.27-1.11-1.88-.05-.03-.1-.04-.14-.06.24.5.49,1.01.73,1.5.39.79-1.12,1.18-1.57.45-.4-.64-.81-1.25-1.21-1.83-.23.17-.49.22-.66-.06-1.44-2.39-3.11-4.43-4.94-6.17-2.88-2.35-6.03-3.78-9.61-4.61-2.82-.4-5.71-.42-8.5-.1-3.2.38-6.58,1.18-9.48,2.64-2.36,1.62-4.73,3.25-7.1,4.87-.58.61-1.14,1.25-1.66,1.91-1.64,2.13-2.96,4.4-4.05,6.81-.04.15-.09.31-.13.45-.66,2.03-1.09,4.11-1.28,6.25h0l-.07,8.09c.36,3.51,1.26,6.92,2.63,10.16.65,1.91,1.66,3.62,3.03,5.12.74,1.27,1.57,2.43,2.5,3.51,1.89,1.26,3.96,2.32,6.16,3.17.54.14,1.08.29,1.62.39,2.83,1.09,5.75,1.67,8.78,1.75,3.82.26,7.57-.07,11.23-1,2.26-.4,4.45-1.06,6.57-1.97,2.03-1.02,3.94-2.25,5.73-3.69.2-.13.49-.05.82.11.39-.29.79-.57,1.18-.88.18-.13.34.03.42.19h0l.11-.08c.71-.48,2.66,1.03,1.78,1.93.38.23.75.51,1.09.8,1.56.06,4.71,2.93,4.12,3.38-.88.76-1.8,1.46-2.75,2.13.83.62,1.93,1.58,1.42,1.97-.92.87-1.91,1.62-2.97,2.27-.72.55-1.45,1.07-2.23,1.54-.83.49-1.69.92-2.57,1.31,1.53,2.97,3,5.97,4.36,9.02.91,2.16,1.96,4.25,3.17,6.26,1.54,3.06,3.39,5.93,5.55,8.61,1.76,2.96,3.82,5.68,6.18,8.17,2.92,3.32,6.05,6.44,9.38,9.33,1.33.94,2.68,1.86,4.09,2.7,3.6,2.71,7.43,5.03,11.5,6.97.48.26.85.83.3,1.28-.02,0-.04,0-.05.03,1.33.75,2.67,1.5,4.01,2.23.53.29,1.62.84.81,1.5-.52.43-2.13-.34-3.09-.84.13.07.28.15.42.23.3.16,2,1.02.95,1.57-.53.09-1.03,0-1.52-.26-.5-.19-1.01-.39-1.5-.61.02.16-.07.31-.33.44-.21.04-.4.04-.6.02,1.09.62,2.19,1.23,3.29,1.83.32.17,1.85,1.01.84,1.53-.49.1-.97.02-1.43-.23-.83-.31-1.66-.68-2.46-1.09h0l-.57-.31c-.14,0-.29-.02-.43-.04.88.48,1.77.93,2.67,1.38.53.29,1.42.87.66,1.46-.53.4-1.96-.32-2.8-.8-.05.06-.12.13-.21.21-.63.48-2.24-.57-2.76-.85-4.45-2.39-8.75-4.85-12.89-7.68-2.53-1.62-5-3.33-7.41-5.19-4.62-3.57-8.82-7.73-12.67-12.11-2.63-3-4.06-4.68-6.6-8.32-4.09-5.85-7.18-11.95-10.15-18.42-.04-.1.04-.35.18-.6-.61-1.5-1.2-3.02-1.79-4.59-1.54.21-3.1.35-4.63.44-3.62.21-7.13-.12-10.53-.86-4.12-.53-8.19-1.7-11.8-3.53-2.16-1.09-4.24-2.24-6.22-3.54-1.77-.94-3.47-2.02-5.11-3.28-6.95-5.31-10.73-13.56-11.66-22.12-.71-3.77-.86-7.65-.44-11.39.31-2.72.92-5.41,1.8-8,1.64-5.75,4.7-11.07,9.14-15.1.74-.76,1.53-1.49,2.36-2.17,2.47-2.02,5.27-3.64,8.25-4.83.57-.28,1.16-.54,1.74-.78h0l-.71-1.63c-.25.07-1.12-.07-1.23-.38-.29-.78-.56-1.58-.83-2.36-.16.1-.37.15-.59.16h0v.91c0,.26-.48,1.88-.75,1.03-.28-.77-.53-1.56-.8-2.34-.22-.14-.39-.31-.46-.51-.03-.08-.05-.16-.09-.24h0l-.06-.02v.28c0,.17-.44,1.46-.52,1.21-1.55-4.27-2.82-8.63-3.81-13.07-.67-2.44-1.2-4.91-1.61-7.41-.44-2.25-.83-4.51-1.16-6.79h0l-.08-.57h0l-.03-.13c-.03-.24-.05-.49-.09-.74-.36-2.58-.66-5.16-.88-7.76-.48-5.35-.66-10.72-.61-16.09-.12.04-.22.11-.34.16-2.33.99-4.79,1.8-7.3,2.45-4.31,6.23-11.2,10.45-19.45,10.89-2.79.15-5.72-.19-8.43-.98-.28.06-.57.12-.87.16-2.21.29-3.75-.61-5.81-.89-3.31-.44-6.11-.65-8.26-2.57-.66.02-1.29-.08-1.89-.26-5.68,1.36-11.71-1.64-13.71-7.93-3.41-2-6.12-4.96-7.94-8.39-3.51-4.5-6.32-10.03-8.07-15.83-.03-.05-.06-.11-.08-.16-.88-1.92-1.3-3.97-1.34-6.04-.94-5.87-.69-11.76,1.1-16.93-.08-2.8.58-5.72,1.79-8.37,1.46-3.21,3.69-6.91,6.58-9.05,0-3.29,1.42-6.92,3.28-9.38,3.7-4.91,9.07-7.5,14.88-7.88,2.95-7.57,11.91-9.34,19.63-6.82,3.21-3.28,7.91-4.84,12.59-4.29,3.96.47,7.35,2.37,10.16,4.98.74.21,1.48.43,2.21.66,2.46-1.08,5.32-1.32,7.94-.65,4.54,1.17,7.51,4.61,9.56,8.56.65.45,1.29.92,1.92,1.4.68.31,1.31.72,1.87,1.2.82.44,1.52,1.16,1.94,2.2,1.16,1.19,2.23,2.46,3.19,3.81.71-1.65,1.45-3.29,2.21-4.92,1.24.37,2.73-.11,3.36-1.76,3.95-10.48,11.14-29.67,17.91-38.52-7.9,5.38-17.56,8.22-27.14,7.93-.41-.01-.82-.03-1.24-.05-5.15.89-10.39.97-15.19,0-3.24-1.17-6.39-2.57-9.45-4.16-.74-.39-1.48-.79-2.21-1.2-.32-.27-.62-.57-.92-.86-.63.05-1.29,0-2-.19-2.64-.7-5.09-2.46-6.63-4.72-.29-.42-.52-.85-.72-1.29-1.66-1.63-3.11-3.47-4.17-5.63-1.25-2.52-2.01-5.36-2.09-8.19-.52-2.78-.48-5.64.48-8.3.11-.29.23-.57.35-.85.05-.18.09-.37.15-.55.28-.95.64-1.79,1.08-2.59.16-.82.43-1.64.8-2.43.04-.38.09-.77.16-1.15-2.85-5.38-1.84-12.42,2.43-16.79-.59-2.83.01-5.82,1.73-8.33,1.26-1.84,3.02-3.3,5.01-4.31.21-.1.76-.29,1.41-.49.74-.65,1.51-1.27,2.36-1.81.21-5.51,5.97-8.58,10.65-11.3,3.04-1.76,4.36-5.1,7.49-6.79,3.42-1.85,7.79-1.96,11.57-2.41,8.91-1.07,18.4-1.9,27.35-.93,4.97.54,9.09,2.94,10.79,6.87,4.28.51,8.09,3.59,11.1,6.76,3.76,3.96,6.97,8.18,8.07,13.38.74.4,1.4.88,2.01,1.43-.02,3.66-.5,7.33-1.51,10.78.3,2.06-.32,4.04-1.38,5.82.16,1.69.05,3.36-.31,5.02,2.05,3.63.13,9.12-2.74,12.72h0l-.02,2.03c.17-.09.34-.19.49-.33,13.01-11.07,26.37-9.49,42.17-15.82,14.25-2.75,28.79-4.5,43.39-5.08-.19-.03-.39-.05-.58-.08-7.36-1.2-14.42-4.23-20.49-8.58-1.61-.41-3.13-1.13-4.5-2.35-1.33-1.18-2.24-2.54-2.77-4-.24-.26-.48-.52-.71-.78-4.56-1.12-8.03-5.07-7.45-10.25-2.89-3.42-3.95-7.64-2.97-12.03-1.61-2.73-1.75-6.16-.55-9.04-2.54-3.08-2.73-7.45-.74-10.94-1.82-2.58-2.22-6,.02-9.05,1.06-1.44,2.52-2.35,4.12-2.79.45-1.66,1.37-3.21,2.81-4.4.74-.61,1.52-1.07,2.31-1.41.3-1.72,1.27-3.34,3.13-4.63.85-.58,1.71-.96,2.58-1.16.82-2.02,2.24-3.79,4.24-4.94,2.42-1.39,5.23-1.57,7.79-.84Zm-115.18,326.38c1.88-.03,3.68,0,5.47.18.07-.05.14-.08.21-.07.3.07.57.13.85.21,1,.14,1.99.35,3.01.65,2.4.71,4.79,1.83,6.87,3.22,1.96,1.31,3.9,2.67,5.61,4.31.6.51,1.17,1.07,1.71,1.64.87.72,1.71,1.45,2.52,2.18.99.91,1.95,1.84,2.86,2.81,1.44,1.66,2.56,3.51,3.37,5.55.32.66-.07,1.05-.74.93-.3-.04-.7-.26-1.11-.55h0l.2.44c.35.69.05,1.18-.74.92-.04-.03-.09-.05-.13-.08.41.74.79,1.49,1.11,2.28.35.7.04,1.18-.75.92-.41-.23-.81-.5-1.18-.8.17.38.35.74.5,1.13.36.71-.05,1.08-.75.92-.6-.33-1.16-.73-1.68-1.18-.08-.06-.15-.13-.22-.2.23.58-.21.94-.79.83-.83-.16-2.38-1.55-2.76-2.29h0l-.07-.13c-.44-.3-.92-.71-1.27-1.1-.29.41-.84.72-1.09.22-.75-2.06-1.93-3.81-3.54-5.29-.92-1.34-2.03-2.48-3.33-3.42-.7-.59-1.43-1.16-2.17-1.7-1.32-.6-2.69-1.06-4.13-1.36-.29-.09-.58-.14-.87-.22-.64-.12-1.27-.23-1.9-.32-2.59-.36-5.2-.42-7.8-.19-.47.02-.92-.34-1.11-.75-.58.03-1.16.05-1.74.11-.96.04-.75-1.32-.03-1.45.92-.17,1.83-.3,2.73-.4-.02-.08-.03-.17,0-.24-1.64-.08-3.28-.04-4.93.13-.72.04.13-1.29.53-1.36.18-.04.36-.05.55-.09-.02-.03-.03-.04-.04-.07h-.04c-.99.04-1.66-1.53-.48-1.74.3-.05.58-.09.87-.14-.05-.15-.06-.29,0-.41-.51,0-1.01,0-1.53,0,.28-.02.48-1.22.82-1.27h0l.79-.11c.02-.33.52-1.1.74-1.15,1.71-.29,3.37-.48,5.03-.55.16-.38.39-.88.62-.88Z"/>
  </g>
  <g id="face_Smile" data-name="face/Smile">
    <path id="_-Ink-2" data-name="ðŸ–-Ink" class="cls-2" d="m289.9,429.57c-6.72-2.74-12.72-7.32-17.11-13.16-1.52-2.03-1.92-4.18-1.6-6.14.36-2.21,1.66-4.21,3.44-5.55,1.79-1.35,4.02-2.01,6.18-1.67,1.88.29,3.74,1.32,5.22,3.45l.31.43c2.61,3.53,6,6.42,9.88,8.29,3.73,1.8,7.9,2.64,12.22,2.15,8.22-.93,13.89-5.38,19.92-11.42.75-.76,1.49-1.55,2.24-2.35.47-.72,1.13-1.19,1.86-1.43.81-.27,1.73-.26,2.57.04.81.28,1.54.82,2.02,1.53.46.68.72,1.52.64,2.48-.55,6.26-3.82,11.85-8.47,16.23-5.16,4.87-12.01,8.24-18.45,9.42-7.1,1.3-14.33.37-20.88-2.3h0Zm24.23-96.56c7.55,4.59,19.06,15.29,10.93,26.67-9.56,10.03-23.33-1.47-30.11-6.67-6.29-4.03-13.36,6.34-7.52,11.05,49.02,36.3,68.92-29.85,30.52-36.44-4.23-.73-5.8,3.98-3.82,5.4Zm-87.85-42.22c.83-10.36,16.61-12.71,18.18-2.46,1.4,9.18-.25,17.61-4.38,25.88-3.95,7.9-13.88,4.21-14.63-2.98-1.01-9.64.32-14,.84-20.44Zm120.06-4.58c2.2-2.88,5.37-4.85,9.18-3.74,11.88,3.47,8.38,20.35,4.21,28.56-2.27,4.46-9.6,5.59-12.91,1.66-5.4-6.4-7.99-19.19-1.12-25.5.19-.33.39-.65.65-.99Zm-106.44-40.73l1.88-.33c5.81-1,13.03-1.97,17.14,2.7,2.18,2.48,2.93,7.08,0,9.45-5.15,4.17-10.85,2.55-17.02,2.91-5.09.29-9.98,1.13-14.88,2.53-10.75,3.07-19.51,8.68-28.7,14.84-1.21.81-2.44-.73-1.86-1.86,5.3-10.38,15.57-18.91,25.86-24.11,5.49-2.78,11.5-5.08,17.58-6.13Zm95.6-4.65l1.44.29c15.64,3.27,35.95,9.8,43.36,25.16.28,2.17-.02,2.64-.26,2.94l-.08.1c-.2.26-.36.62-1.3.91-.26-.06-.53-.13-.79-.2-3.39-.89-6.08-2.11-8.68-3.39l-2.82-1.39c-3.27-1.6-6.57-3.15-10.07-4.29-7.46-2.43-15.14-4.15-22.93-5.06-1.69-.2-3.32-.77-4.6-1.75-1.22-.93-2.15-2.21-2.57-3.92-.55-2.21-.39-3.88.79-5.87.89-1.5,2.17-2.53,3.63-3.13,1.49-.61,3.19-.75,4.88-.41Z"/>
  </g>
</svg>