<?xml version="1.0" encoding="utf-8"?>
<!-- Generator: $$$/GeneralStr/196=Adobe Illustrator 27.6.0, SVG Export Plug-In . SVG Version: 6.00 Build 0)  -->
<svg version="1.1" id="Calque_1" xmlns="http://www.w3.org/2000/svg" xmlns:xlink="http://www.w3.org/1999/xlink" x="0px" y="0px"
	 viewBox="0 0 600 600" style="enable-background:new 0 0 600 600;" xml:space="preserve">
<style type="text/css">
	.st0{fill-rule:evenodd;clip-rule:evenodd;fill:#FFFFFF;}
	.st1{fill-rule:evenodd;clip-rule:evenodd;}
</style>
<g id="head_mono_Buns">
	<path id="_-Background" class="st0" d="M442.5,242c-28.1-39.8-98.8-44.3-143.4-44.1c-88.2-0.7-106.6,100.6-111.3,171.7
		c-9.4,1.6-18.6,4.9-24.8,12.3c-7.6,9-10.2,24.4-3.1,34.5c4.7,6.7,12.1,8.9,19.9,9.3c25.7-2.5,31,20.5,43.7,37.7
		c32.5,44,88.9,58.2,140.6,58.4c17.6,0.5,38.7,1.8,50-14.7c35.5-61.6,36.3-143.2,38.5-213C452.9,276.2,452.8,257.3,442.5,242
		L442.5,242L442.5,242z"/>
	<path id="_-Ink" class="st1" d="M286.8,75c3.2-4.8,10.2-6.7,15-3.1c4-2.5,9.1-2,12.7,1.1c4.4-2.6,9.8-1.5,13.2,2.1
		c5.5-3,12.8-0.8,15.7,4.9c5.5-0.6,10.8,3,12.3,8.3c0.3,0.2,0.5,0.4,0.8,0.6c3.3,0.2,6.5,1.5,8.3,4.6c0.9,1.5,1.4,3.4,1.3,5.1
		c2,1.1,3.6,2.8,4.3,5.1c0.6,2.1,0.4,4.3-0.4,6.1c2.8,2.9,3.5,7.5,1.5,11.2c0.8,1.4,1.2,3,1.2,4.7c-0.1,2.5-1.3,4.6-2.9,6.3
		c2,3.6,1.2,8.3-2,10.8c-1.9,6.7-6.6,11.1-13.9,13.8c-3.6,1.4-7.5,2.4-11.4,3.2c15.6,2.1,30.9,5.8,45.6,11.3c0.8,0.3,1.5,0.2,2-0.2
		c0.3,0.2,0.6,0.3,1,0.5c4.1,2.2,8,4.6,11.9,7.2c0-0.4,0-0.9,0-1.3c-0.1-3.5,0.3-7,1.2-10.3c-1.2-1.7-2.1-3.6-2.6-5.5
		c-1.2-4.9,1.1-11.8,5.3-13.5c1.5-4.1,4.9-7.1,9-8.3c0.3-0.3,0.7-0.6,1.1-0.8c0.9-0.6,1.8-1,2.8-1.2c0.5-2.2,1.8-4.3,3.8-5.7
		c2.9-2,6.4-2.3,9.4-1.1c0.6-0.2,1.2-0.4,1.7-0.5c4.9-4.1,12.5-3.8,16.8,1c2.9-1.3,6.4-1.4,9.4,0.4c2.4,1.4,3.9,3.8,4.5,6.3
		c4.6,0.1,8.7,3.2,10.1,7.7c4.2,0.5,7.6,3.8,8.4,7.9c2.7,0.4,5.2,1.6,6.7,4.1c0.7,1.2,1.1,2.4,1.2,3.7c1.4,0.6,2.6,1.6,3.5,2.9
		c1.6,2.3,1.9,4.9,1.3,7.4c0.1,0.3,0.3,0.5,0.4,0.8c0.4,0.9,0.8,1.9,1.1,2.9c1.4,2,2.1,4.5,1.9,7c0.3,1.1,0.6,2.1,0.8,3.2
		c1,4.2,1.3,8.6,0.7,12.9c-0.3,2.1-0.8,4.1-1.5,6.1c-0.1,0.4-0.2,0.7-0.3,1.1c-0.4,1.5-0.8,3.1-1.4,4.6c-1.4,1.9-2.9,3.8-4.5,5.5
		c-1.3,2-2.9,3.8-4.6,5.5c-1.2,1.2-2.6,2.4-4,3.4c-2.9,2.3-6.1,4.1-9.5,5.2c-0.6-0.1-1.2-0.2-1.8-0.3c-3.9,2.1-10,2.4-13.7,2.4
		c-4.1,0-7.9-1.1-11-3c0.4,0.7,0.7,1.4,1.1,2.2c-0.1,0-0.2,0.1-0.3,0.2c-0.7-1.1-1.4-2.1-2.3-2.8c-1.2-1-3.2-1.1-4,0.5l0,0l0,0.1
		c-0.4,0.8-0.4,1.7,0,2.3c0.1,0.2,0.2,0.4,0.4,0.5c0,0,0.1,0.1,0.1,0.2h0c1.2,0.9,2.3,3.2,3.4,5.5c0.7,1.3,1.4,2.6,2.1,4
		c0.4,0.6,1.1,1.1,1.8,1.2c-0.1,1.1,0.4,2.2,1.2,2.7c0.2-0.4,0.5-0.9,0.8-1.3c3.7-5,10.9-7.1,16.3-4.9c1.1-0.2,2.2-0.3,3.3-0.4
		c3.6-0.2,7.2,0,10.7,0.8c1.1,0.7,2.1,1.4,3.1,2.2c0.8,0.7,1.6,1.5,2.3,2.2c0.6,0.4,1.1,0.9,1.6,1.3c2.2,1.2,3.8,3.4,5.1,5.6
		c1.1,1.5,2,3.1,2.8,4.8c3.7,6.4,8,14.3,4.7,20.5c0.4,0.7,0.6,1.4,0.8,2.2c0.5,2.6-0.5,4.6-1.7,6.5c0.2,1.3,0.3,2.6,0.3,3.8
		c0.4,6.4-1.1,15.2-6.7,17.8c-0.1,0.1-0.2,0.2-0.3,0.3c-0.4,0.7-1.1,1.3-2,1.8c-0.2,0.2-0.4,0.3-0.7,0.4c-0.1,0.1-0.2,0.2-0.3,0.2
		c0.1-0.1,0.2-0.3,0.4-0.4c-3.1,1.2-6.1,1.5-9.3,1.1c-2,0.7-4,1.3-5.7,1.7c-5.2,1.3-12,2.3-17.1,0.1c-1.5-0.6-2.7-1.5-3.7-2.5
		c0.1,4,0.2,7.9,0.4,11.9c0.4,10,0.3,20,0.3,30c-0.1,11.3-0.4,22.5-1,33.8c-0.3,5.7-0.7,11.3-1.3,16.9c-0.5,5.5-1.1,11-1.8,16.4
		c-1.6,11.2-4.3,22.5-7.6,33.4c-1.4,4.7-3,9.5-4.8,14.1c-0.8,2.1-1.5,4.3-2.4,6.4c-4.5,11-10.2,21.6-17.9,30.8
		c-4.2,5-8.8,9.5-13.9,13.3c-4.1,3.2-8.6,5.9-13.5,8.1c-10.6,4.6-22.4,5.7-33.8,5.5c-4.4-0.1-9.2-0.9-13.6-1.6
		c-3.4-0.6-6.8-1.3-10.2-2.2c-3-0.7-6-1.5-8.9-2.5c-3.5-0.9-6.9-2.3-10.1-4l0,0l-5.7-2.1c-2.4-0.9-4.7-2-6.9-3.2l0,0l-6.2-2.9
		c-2.6-1.2-5.1-2.6-7.5-4.1c-0.3-0.1-0.5-0.4-0.7-0.6c-0.6-0.4-1.3-0.7-1.9-1c-0.1,0,0-0.4,0.1-0.6c-0.1-0.2-0.1-0.5,0.2-0.7
		c0.2-0.2,0.6-0.1,1,0c0,0-0.1,0-0.1-0.1c-0.4-0.2-0.8-0.5-1.3-0.7c-0.4-0.2-0.5-0.8-0.1-1.1c0.1-0.1,0.2-0.1,0.4-0.1h0
		c-0.1-0.1,0-0.3,0.1-0.6c-0.2-0.3-0.3-0.6,0.1-0.9c0.6-0.4,1.9,0.4,2.3,0.6c0.5,0.3,1.1,0.6,1.6,0.9c0-0.1,0.1-0.1,0.2-0.2
		c-0.8-0.4-1.6-0.8-2.4-1.3c-0.5-0.3-1.1-0.8-0.5-1.3c0.5-0.4,1.8,0.3,2.5,0.6c0.1-0.1,0.2-0.1,0.3-0.1c-0.3-0.2-0.6-0.3-0.8-0.5
		c-0.8-0.4-0.2-1.8,0.5-1.3l0,0l0.3,0.2c0.6,0,1.4,0.4,1.7,0.6c2.7,1.7,5.4,3.1,8.3,4.4c1.9,0.9,3.9,1.8,5.9,2.7
		c1.9,1,3.9,1.8,5.9,2.5c5.1,2,10.3,3.9,15.5,5.6c7.3,2,14.9,3.6,22.5,4.2c1,0.1,2,0.1,3,0.2c2.2,0,4.3,0,6.5,0
		c4.2-0.4,8.4-0.9,12.6-1.3c1.5-0.2,2.9-0.5,4.3-0.8c0.7-0.2,1.5-0.4,2.2-0.6c0.3,0,0.5-0.1,0.8-0.1c1.8-0.5,3.6-1,5.3-1.7
		c1.1-0.5,2.2-0.9,3.3-1.4c3.6-1.7,7.2-3.9,10.5-6.4l0,0l12.6-12.5l3.8-5.2c4.9-7.1,8.9-14.9,12.1-23l0,0l5.2-14.9
		c0.5-1.8,1-3.6,1.5-5.4c1-4,2-8,2.9-12.1c0.3-1.5,0.6-2.9,1-4.4c1.9-9.1,2.9-18.4,3.8-27.7c1.6-16.9,2.1-33.8,2.2-50.7
		c0.1-10.1,0-20.2-0.2-30.4c-0.1-5.9-0.2-11.7-0.3-17.6c-0.1-6.2-0.2-12.5-0.4-18.7c0-0.1,0-0.3,0.1-0.4c0-0.7,0-1.5,0-2.2
		c0-0.5,0.2-0.7,0.5-0.7c0-4.4-0.1-8.9-0.1-13.3c0-0.3,0.1-0.5,0.3-0.6l0,0v-1.1c-0.7-3.1-1.7-6.1-3.1-9c-0.4-1-0.9-2.1-1.5-3
		c-0.7-1.5-1.5-2.8-2.6-4.1c-0.9-1.5-2-2.9-3.3-4l0,0l-1.6-1.1c-0.4-0.2-1.1-0.6-1.6-1.1l0,0l-3-1.9c-0.6-0.3-0.2-1.1,0.2-1.3l0,0v0
		c-0.1,0-0.2-0.1-0.3-0.2c-1.2-1.2-2.5-2.3-3.8-3.3c-0.2,0.1-0.5,0.1-0.7-0.1c-0.8-0.7-1.6-1.4-2.4-2.1c-1.8-1.2-3.8-2.3-5.8-3.3
		c-3.2-1.5-6.5-2.8-9.9-3.9c-0.7-0.2-1.5-0.5-2.2-0.7c-1,0-2.1-0.1-3.1-0.2c-38.6-1.7-77.4-1-115.9,2.1c-9.5,0.8-19,1.7-28.4,2.7
		c-8.3,0.9-18.3,0.9-26,4.7c-0.3,0.2-0.6,0.3-0.9,0.5c0.6,3.8,2.2,7.6,3.5,11.2c2.1,5.6,4,11.2,3.8,17.3c-0.1,4.2-1,8.3-2.3,12.2
		c-0.7,5.6-2.4,11.1-4.3,16.4c-9.2,26.3-14.2,53.3-13.7,81.2c0,0.8-0.2,1.4-0.5,2c0.2,1.2,0.3,2.4,0.5,3.7c0.8,4.7-5.4,7.1-7.6,3.9
		c-0.1,0.1-0.3,0.2-0.5,0.3c-0.5,0-1.4-0.8-1.7-1.3c-0.3-0.6-0.7-1.2-1.1-1.8c0,0-0.1,0-0.1-0.1c0.2,0.5,0.5,1,0.7,1.4
		c0.4,0.8-1.1,1.1-1.5,0.4c-0.4-0.6-0.8-1.2-1.1-1.7c-0.2,0.2-0.5,0.2-0.6-0.1c-1.4-2.3-3-4.2-4.7-5.9c-2.7-2.2-5.7-3.6-9.1-4.4
		c-2.7-0.4-5.4-0.4-8.1-0.1c-3,0.4-6.3,1.1-9,2.5c-2.2,1.5-4.5,3.1-6.7,4.6c-0.6,0.6-1.1,1.2-1.6,1.8c-1.6,2-2.8,4.2-3.8,6.5
		c0,0.1-0.1,0.3-0.1,0.4c-0.6,1.9-1,3.9-1.2,5.9l0,0l-0.1,7.7c0.3,3.3,1.2,6.6,2.5,9.7c0.6,1.8,1.6,3.4,2.9,4.9
		c0.7,1.2,1.5,2.3,2.4,3.3c1.8,1.2,3.8,2.2,5.9,3c0.5,0.1,1,0.3,1.5,0.4c2.7,1,5.5,1.6,8.3,1.7c3.6,0.2,7.2-0.1,10.7-1
		c2.1-0.4,4.2-1,6.2-1.9c1.9-1,3.7-2.1,5.4-3.5c0.2-0.1,0.5,0,0.8,0.1c0.4-0.3,0.8-0.5,1.1-0.8c0.2-0.1,0.3,0,0.4,0.2l0,0l0.1-0.1
		c0.7-0.5,2.5,1,1.7,1.8c0.4,0.2,0.7,0.5,1,0.8c1.5,0.1,4.5,2.8,3.9,3.2c-0.8,0.7-1.7,1.4-2.6,2c0.8,0.6,1.8,1.5,1.3,1.9
		c-0.9,0.8-1.8,1.5-2.8,2.2c-0.7,0.5-1.4,1-2.1,1.5c-0.8,0.5-1.6,0.9-2.4,1.2c1.5,2.8,2.9,5.7,4.1,8.6c0.9,2.1,1.9,4,3,5.9
		c1.5,2.9,3.2,5.6,5.3,8.2c1.7,2.8,3.6,5.4,5.9,7.8c2.8,3.2,5.7,6.1,8.9,8.9c1.3,0.9,2.5,1.8,3.9,2.6c3.4,2.6,7.1,4.8,10.9,6.6
		c0.5,0.2,0.8,0.8,0.3,1.2c0,0,0,0,0,0c1.3,0.7,2.5,1.4,3.8,2.1c0.5,0.3,1.5,0.8,0.8,1.4c-0.5,0.4-2-0.3-2.9-0.8
		c0.1,0.1,0.3,0.1,0.4,0.2c0.3,0.2,1.9,1,0.9,1.5c-0.5,0.1-1,0-1.4-0.2c-0.5-0.2-1-0.4-1.4-0.6c0,0.2-0.1,0.3-0.3,0.4
		c-0.2,0-0.4,0-0.6,0c1,0.6,2.1,1.2,3.1,1.7c0.3,0.2,1.8,1,0.8,1.5c-0.5,0.1-0.9,0-1.4-0.2c-0.8-0.3-1.6-0.6-2.3-1l0,0l-0.5-0.3
		c-0.1,0-0.3,0-0.4,0c0.8,0.5,1.7,0.9,2.5,1.3c0.5,0.3,1.3,0.8,0.6,1.4c-0.5,0.4-1.9-0.3-2.7-0.8c0,0.1-0.1,0.1-0.2,0.2
		c-0.6,0.5-2.1-0.5-2.6-0.8c-4.2-2.3-8.3-4.6-12.2-7.3c-2.4-1.5-4.8-3.2-7-4.9c-4.4-3.4-8.4-7.3-12-11.5c-2.5-2.9-3.9-4.4-6.3-7.9
		c-3.9-5.6-6.8-11.4-9.6-17.5c0-0.1,0-0.3,0.2-0.6c-0.6-1.4-1.1-2.9-1.7-4.4c-1.5,0.2-2.9,0.3-4.4,0.4c-3.4,0.2-6.8-0.1-10-0.8
		c-3.9-0.5-7.8-1.6-11.2-3.4c-2.1-1-4-2.1-5.9-3.4c-1.7-0.9-3.3-1.9-4.9-3.1c-6.6-5-10.2-12.9-11.1-21c-0.7-3.6-0.8-7.3-0.4-10.8
		c0.3-2.6,0.9-5.1,1.7-7.6c1.6-5.5,4.5-10.5,8.7-14.3c0.7-0.7,1.5-1.4,2.2-2.1c2.3-1.9,5-3.5,7.8-4.6c0.5-0.3,1.1-0.5,1.7-0.7l0,0
		l-0.7-1.5c-0.2,0.1-1.1-0.1-1.2-0.4c-0.3-0.7-0.5-1.5-0.8-2.2c-0.2,0.1-0.4,0.1-0.6,0.2l0,0v0.9c0,0.2-0.5,1.8-0.7,1
		c-0.3-0.7-0.5-1.5-0.8-2.2c-0.2-0.1-0.4-0.3-0.4-0.5c0-0.1,0-0.2-0.1-0.2l0,0l-0.1,0v0.3c0,0.2-0.4,1.4-0.5,1.1
		c-1.5-4.1-2.7-8.2-3.6-12.4c-0.6-2.3-1.1-4.7-1.5-7c-0.4-2.1-0.8-4.3-1.1-6.5l0,0l-0.1-0.5l0,0l0-0.1c0-0.2,0-0.5-0.1-0.7
		c-0.3-2.5-0.6-4.9-0.8-7.4c-0.5-5.1-0.6-10.2-0.6-15.3c-0.1,0-0.2,0.1-0.3,0.2c-2.2,0.9-4.6,1.7-6.9,2.3
		c-4.1,5.9-10.6,9.9-18.5,10.3c-2.7,0.1-5.4-0.2-8-0.9c-0.3,0.1-0.5,0.1-0.8,0.2c-2.1,0.3-3.6-0.6-5.5-0.8c-3.1-0.4-5.8-0.6-7.8-2.4
		c-0.6,0-1.2-0.1-1.8-0.2c-5.4,1.3-11.1-1.6-13-7.5c-3.2-1.9-5.8-4.7-7.5-8c-3.3-4.3-6-9.5-7.7-15c0,0-0.1-0.1-0.1-0.2
		c-0.8-1.8-1.2-3.8-1.3-5.7c-0.9-5.6-0.7-11.2,1-16.1c-0.1-2.7,0.6-5.4,1.7-8c1.4-3.1,3.5-6.6,6.3-8.6c0-3.1,1.3-6.6,3.1-8.9
		c3.5-4.7,8.6-7.1,14.1-7.5c2.8-7.2,11.3-8.9,18.7-6.5c3.1-3.1,7.5-4.6,12-4.1c3.8,0.4,7,2.3,9.7,4.7c0.7,0.2,1.4,0.4,2.1,0.6
		c2.3-1,5.1-1.3,7.5-0.6c4.3,1.1,7.1,4.4,9.1,8.1c0.6,0.4,1.2,0.9,1.8,1.3c0.6,0.3,1.2,0.7,1.8,1.1c0.8,0.4,1.4,1.1,1.8,2.1
		c1.1,1.1,2.1,2.3,3,3.6c0.7-1.6,1.4-3.1,2.1-4.7c1.2,0.4,2.6-0.1,3.2-1.7c3.8-10,10.6-28.2,17-36.6c-7.5,5.1-16.7,7.8-25.8,7.5
		c-0.4,0-0.8,0-1.2,0c-4.9,0.8-9.9,0.9-14.4,0c-3.1-1.1-6.1-2.4-9-4c-0.7-0.4-1.4-0.8-2.1-1.1c-0.3-0.3-0.6-0.5-0.9-0.8
		c-0.6,0-1.2,0-1.9-0.2c-2.5-0.7-4.8-2.3-6.3-4.5c-0.3-0.4-0.5-0.8-0.7-1.2c-1.6-1.5-3-3.3-4-5.3c-1.2-2.4-1.9-5.1-2-7.8
		c-0.5-2.6-0.5-5.4,0.5-7.9c0.1-0.3,0.2-0.5,0.3-0.8c0-0.2,0.1-0.4,0.1-0.5c0.3-0.9,0.6-1.7,1-2.5c0.2-0.8,0.4-1.6,0.8-2.3
		c0-0.4,0.1-0.7,0.2-1.1c-2.7-5.1-1.7-11.8,2.3-16c-0.6-2.7,0-5.5,1.6-7.9c1.2-1.7,2.9-3.1,4.8-4.1c0.2-0.1,0.7-0.3,1.3-0.5
		c0.7-0.6,1.4-1.2,2.2-1.7c0.2-5.2,5.7-8.2,10.1-10.7c2.9-1.7,4.1-4.8,7.1-6.5c3.2-1.8,7.4-1.9,11-2.3c8.5-1,17.5-1.8,26-0.9
		c4.7,0.5,8.6,2.8,10.3,6.5c4.1,0.5,7.7,3.4,10.5,6.4c3.6,3.8,6.6,7.8,7.7,12.7c0.7,0.4,1.3,0.8,1.9,1.4c0,3.5-0.5,7-1.4,10.2
		c0.3,2-0.3,3.8-1.3,5.5c0.2,1.6,0,3.2-0.3,4.8c1.9,3.4,0.1,8.7-2.6,12.1l0,0l0,1.9c0.2-0.1,0.3-0.2,0.5-0.3
		c12.4-10.5,25.1-9,40.1-15c13.5-2.6,27.4-4.3,41.2-4.8c-0.2,0-0.4,0-0.6-0.1c-7-1.1-13.7-4-19.5-8.2c-1.5-0.4-3-1.1-4.3-2.2
		c-1.3-1.1-2.1-2.4-2.6-3.8c-0.2-0.2-0.5-0.5-0.7-0.7c-4.3-1.1-7.6-4.8-7.1-9.7c-2.7-3.2-3.8-7.3-2.8-11.4c-1.5-2.6-1.7-5.9-0.5-8.6
		c-2.4-2.9-2.6-7.1-0.7-10.4c-1.7-2.5-2.1-5.7,0-8.6c1-1.4,2.4-2.2,3.9-2.7c0.4-1.6,1.3-3.1,2.7-4.2c0.7-0.6,1.4-1,2.2-1.3
		c0.3-1.6,1.2-3.2,3-4.4c0.8-0.6,1.6-0.9,2.5-1.1c0.8-1.9,2.1-3.6,4-4.7C281.7,74.4,284.4,74.3,286.8,75L286.8,75z M177.3,385.1
		c1.8,0,3.5,0,5.2,0.2c0.1,0,0.1-0.1,0.2-0.1c0.3,0.1,0.5,0.1,0.8,0.2c1,0.1,1.9,0.3,2.9,0.6c2.3,0.7,4.6,1.7,6.5,3.1
		c1.9,1.2,3.7,2.5,5.3,4.1c0.6,0.5,1.1,1,1.6,1.6c0.8,0.7,1.6,1.4,2.4,2.1c0.9,0.9,1.9,1.7,2.7,2.7c1.4,1.6,2.4,3.3,3.2,5.3
		c0.3,0.6-0.1,1-0.7,0.9c-0.3,0-0.7-0.2-1.1-0.5l0,0l0.2,0.4c0.3,0.7,0,1.1-0.7,0.9c0,0-0.1,0-0.1-0.1c0.4,0.7,0.8,1.4,1.1,2.2
		c0.3,0.7,0,1.1-0.7,0.9c-0.4-0.2-0.8-0.5-1.1-0.8c0.2,0.4,0.3,0.7,0.5,1.1c0.3,0.7,0,1-0.7,0.9c-0.6-0.3-1.1-0.7-1.6-1.1
		c-0.1-0.1-0.1-0.1-0.2-0.2c0.2,0.6-0.2,0.9-0.8,0.8c-0.8-0.2-2.3-1.5-2.6-2.2l0,0l-0.1-0.1c-0.4-0.3-0.9-0.7-1.2-1
		c-0.3,0.4-0.8,0.7-1,0.2c-0.7-2-1.8-3.6-3.4-5c-0.9-1.3-1.9-2.4-3.2-3.2c-0.7-0.6-1.4-1.1-2.1-1.6c-1.3-0.6-2.6-1-3.9-1.3
		c-0.3-0.1-0.6-0.1-0.8-0.2c-0.6-0.1-1.2-0.2-1.8-0.3c-2.5-0.3-4.9-0.4-7.4-0.2c-0.4,0-0.9-0.3-1.1-0.7c-0.6,0-1.1,0-1.7,0.1
		c-0.9,0-0.7-1.3,0-1.4c0.9-0.2,1.7-0.3,2.6-0.4c0-0.1,0-0.2,0-0.2c-1.6-0.1-3.1,0-4.7,0.1c-0.7,0,0.1-1.2,0.5-1.3
		c0.2,0,0.3,0,0.5-0.1c0,0,0,0,0-0.1h0c-0.9,0-1.6-1.5-0.5-1.7c0.3,0,0.6-0.1,0.8-0.1c0-0.1-0.1-0.3,0-0.4c-0.5,0-1,0-1.5,0
		c0.3,0,0.5-1.2,0.8-1.2l0,0l0.8-0.1c0-0.3,0.5-1,0.7-1.1c1.6-0.3,3.2-0.5,4.8-0.5C177,385.6,177.2,385.1,177.3,385.1L177.3,385.1z"
		/>
</g>
<g id="face_Smile">
	<path id="_-Ink-2" class="st1" d="M351.1,478.2c-6.4-2.6-12.1-7-16.3-12.5c-1.4-1.9-1.8-4-1.5-5.8c0.3-2.1,1.6-4,3.3-5.3
		c1.7-1.3,3.8-1.9,5.9-1.6c1.8,0.3,3.6,1.3,5,3.3l0.3,0.4c2.5,3.4,5.7,6.1,9.4,7.9c3.5,1.7,7.5,2.5,11.6,2
		c7.8-0.9,13.2-5.1,18.9-10.9c0.7-0.7,1.4-1.5,2.1-2.2c0.4-0.7,1.1-1.1,1.8-1.4c0.8-0.3,1.6-0.2,2.4,0c0.8,0.3,1.5,0.8,1.9,1.5
		c0.4,0.6,0.7,1.4,0.6,2.4c-0.5,5.9-3.6,11.3-8,15.4c-4.9,4.6-11.4,7.8-17.5,9C364.2,481.6,357.3,480.7,351.1,478.2L351.1,478.2
		L351.1,478.2z M374.1,386.4c7.2,4.4,18.1,14.5,10.4,25.3c-9.1,9.5-22.2-1.4-28.6-6.3c-6-3.8-12.7,6-7.1,10.5
		c46.6,34.5,65.5-28.4,29-34.6C373.7,380.6,372.2,385.1,374.1,386.4L374.1,386.4z M290.6,346.3c0.8-9.8,15.8-12.1,17.3-2.3
		c1.3,8.7-0.2,16.7-4.2,24.6c-3.8,7.5-13.2,4-13.9-2.8C288.9,356.6,290.2,352.4,290.6,346.3L290.6,346.3z M404.7,341.9
		c2.1-2.7,5.1-4.6,8.7-3.6c11.3,3.3,8,19.3,4,27.1c-2.2,4.2-9.1,5.3-12.3,1.6c-5.1-6.1-7.6-18.2-1.1-24.2
		C404.3,342.6,404.5,342.3,404.7,341.9L404.7,341.9z M303.6,303.2l1.8-0.3c5.5-1,12.4-1.9,16.3,2.6c2.1,2.4,2.8,6.7,0,9
		c-4.9,4-10.3,2.4-16.2,2.8c-4.8,0.3-9.5,1.1-14.1,2.4c-10.2,2.9-18.5,8.2-27.3,14.1c-1.1,0.8-2.3-0.7-1.8-1.8
		c5-9.9,14.8-18,24.6-22.9C292.1,306.4,297.8,304.2,303.6,303.2L303.6,303.2z M394.4,298.8l1.4,0.3c14.9,3.1,34.2,9.3,41.2,23.9
		c0.3,2.1,0,2.5-0.2,2.8l-0.1,0.1c-0.2,0.2-0.3,0.6-1.2,0.9c-0.2-0.1-0.5-0.1-0.8-0.2c-3.2-0.8-5.8-2-8.2-3.2l-2.7-1.3
		c-3.1-1.5-6.2-3-9.6-4.1c-7.1-2.3-14.4-3.9-21.8-4.8c-1.6-0.2-3.2-0.7-4.4-1.7c-1.2-0.9-2-2.1-2.4-3.7c-0.5-2.1-0.4-3.7,0.8-5.6
		c0.8-1.4,2.1-2.4,3.4-3C391.2,298.6,392.8,298.5,394.4,298.8L394.4,298.8z"/>
</g>
</svg>
