<?xml version="1.0" encoding="utf-8"?>
<!-- Generator: $$$/GeneralStr/196=Adobe Illustrator 27.6.0, SVG Export Plug-In . SVG Version: 6.00 Build 0)  -->
<svg version="1.1" id="Calque_1" xmlns="http://www.w3.org/2000/svg" xmlns:xlink="http://www.w3.org/1999/xlink" x="0px" y="0px"
	 viewBox="0 0 600 600" style="enable-background:new 0 0 600 600;" xml:space="preserve">
<style type="text/css">
	.st0{fill-rule:evenodd;clip-rule:evenodd;fill:#FFFFFF;}
	.st1{fill-rule:evenodd;clip-rule:evenodd;fill:#221E1F;}
	.st2{fill-rule:evenodd;clip-rule:evenodd;}
</style>
<g id="head_x2F_mono_x2F_Gray-Medium">
	<path id="_xD83C__xDFA8_-Background" class="st0" d="M371.8,524.9c-20.7-0.1-39.6-4.1-57.6-12.9c-21.7-7.1-45.4-10.9-63-26.6
		c-8.6,1.8-17.4-7-24.5-12.2c-11.6,42.7-72,35.6-97.5,8c-15.6-13.2-21.9-45.8,5.2-54.4C89.9,396.5,73.9,344.4,77,288
		c3.2-94.6,75.9-192.9,169.4-209.4c18.4-3.2,37.4-2.9,55.7,1c10.3,2.2,20.2,6.5,31.1,6.3c42.6-6.7,89.3-6,124.5,21.3
		c56.2,37.6,64,112.8,57.4,173.3l0.3,0.6c-3.3,22.2-8.7,42.5-19,55.9c-0.8,19.2-7.5,60.3-8,76.5
		C489.6,489.1,446.7,522.6,371.8,524.9"/>
	<path id="_xD83D__xDD8D_-Ink" class="st1" d="M124.6,425.6C-10,306.8,128.1,39.2,303.1,74.7c17.7,5.9,35.7,8,54.1,3.6
		c92.5-14.4,168.1,64,164.2,154.8c0.7,15.5,0.5,31.1-1.2,46.5c-1.9,20.3-7.2,42.1-18.8,59c-0.1,11.3-6.8,53.9-7.9,74l-0.2,4.2
		c-1.1,20.6-3.4,41.6-12.4,60.4c-27.8,50.4-99.5,61.2-150.9,46.6l-2.1-0.7c-9.5-3.2-20.4-7.4-26.4-15.4c-3.2-4.2,2.1-9.6,6.5-8.5
		c5.7,1.5,10.4,4.9,15.7,7.4c34.6,15.3,75.5,10.2,109.6-4.1l1-0.4c61.1-24.8,44.4-113.1,52.4-163.4c1.8-63.9-51.5-107.4-91.6-149.7
		l-1.2-1.3c-4.1-4.6-8.5-9-14.2-10c-1.6,4.8-5.4,8.8-9,12.3l-8.2,8.5c-8.1,8.7-16.2,17.5-24.5,26.1c-40,40.6-80.8,95.8-142.4,100
		c3.8,3.4,7.1,7.3,11.1,10.6c1.7,1.7,0,4.5-2.3,3.9c-4.2-1.1-6.9-5-9.6-8.2c-33.3-14-60.7,37.7-32.4,59.1
		c10.5,11.1,41.1,2.6,34,16.3c7.7,24.2,19.6,48.6,39.7,64.8c5.9,4.5,15.1,6.7,19,13.3c0.9,1.6,0.5,4.2-1.3,5
		c-8.5,4-17.7-2.7-24.3-7.8C194.8,549.3,67.8,474.5,124.6,425.6z M330.4,94.9l-3.5-0.7c-37-7.3-61.4-14.6-100.5-1.3
		C139.2,122,83,214.8,85.4,305c0.1,51.2,25.5,116.5,82.6,123.8c8.6,0.7,8.8,14.1,0.3,13.7H168c-14.1-0.9-27.7-6-39.4-13.9
		c-15.6,25.3,0,48.2,24.4,59.1c24.6,13,51,8.9,67.4-14.1c-15-16.7-26.1-41.6-28.7-63.8c-42.2,16.4-74-44-46.6-76
		c9.7-13.8,28.4-22.4,43.9-12.6c66.5-25.6,113-80,157.4-133.3l2.4-2.7c7.8-8.8,25.7-28.7,27.7-31.2c2.2-2.9,6.7-0.3,6.8,2.8
		c0,2.2-0.1,4.4-0.3,6.7c8.3,5.3,15,13.4,21.2,20.9c46.1,36.2,83.6,74.1,95.2,131.5c7.2-8.5,10.5-19.5,12.9-30.1
		c5-69.9-8.4-153.6-80.5-183.9C397.2,84.6,366.3,92.4,330.4,94.9z M166.8,357.4c-3-2.7,16.8-3,18.7-0.9l0.4,0.1
		c7.1,2.5,20.1,10.5,13.7,18.9C190.6,384.1,184.2,358.6,166.8,357.4z"/>
</g>
<g id="face_x2F_Smile-LOL">
	<path id="_xD83D__xDD8D_-Ink_00000182502476046656006050000017935423105536502403_" class="st2" d="M380.1,418.9
		c12.4-0.1,31-0.4,43.3,0.3c3.6,0.2,5.3,5.3,5.6,7.7c2.4,22.5-15.6,40.4-35.4,47.4c-18.4,6.5-42.7,7.7-59.1-4.4
		c-7.1-5.2-12.5-12.5-16.1-20.5c-1.9-4.4-3.3-8.9-4.1-13.5c-0.6-3.6-1.7-8.4-0.4-11.9c1.8-4.8,6.8-4.5,11.1-4.5
		c5.9-0.1,11.8-0.3,17.8-0.3C355.2,419,367.7,419,380.1,418.9z M414.5,425.5L414.5,425.5c-5.7,0.6-67.2,1-76.7,1.3
		c-1.4,0-2.9,0-4.4,0c-1.1,3.3,1.7,10,4.6,11.1c2.9,1.2,27.8,2.3,42.5,1.6c10-0.4,36-6.5,36-9.1S415.4,425.4,414.5,425.5
		L414.5,425.5z M290.1,367.8c1.9-1,3.7,0.3,3.9,2.3c0.5,4-1.6,8.1-1.7,12.1c-0.1,4.4,0.4,8.7,0.2,13c-0.3,7.6-2.5,15.2-6.9,21.5
		c-5.2,7.5-19.1,15.6-25.7,4.8c-4.7-7.8-1-19.1,2.4-26.6c2.7-5.9,6.6-11.3,11.1-16c2.9-3.1,9.1-10.2,13.8-9.5c0.2,0,0.3,0.2,0.2,0.4
		c0,0.1-0.1,0.3-0.1,0.4C288.1,369.2,288.9,368.4,290.1,367.8z M286.4,371.9c-0.8,1-2,1.8-3,2.8c-2.1,2.1-4.1,4.2-6,6.5
		c-3.4,4.2-6.1,8.8-8.3,13.7c-2.6,5.8-7,15.7-3.9,22.2c1.7,3.5,5.9,2.8,8.8,1.2c5.4-3.1,8.5-9.9,10-15.6c1.7-6.4,0.7-13,0.7-19.5
		C284.9,379.7,284.9,375.3,286.4,371.9z M442.7,357.6c0.1-2.5,2.6-3.8,4.7-2.7c3.7,1.8,5.2,5.6,7.3,9c2.4,4,4.7,8,7.1,11.9
		c4.2,7,9.9,14.5,12,22.5c3.1,11.8-7.1,20.5-18.5,17.9c-11.9-2.6-16.3-16.4-16-27.2c0.1-5.6,1.4-11.4,2.6-16.9
		c0.7-3.2,0.9-6.8,1.7-10C443,360.7,442.6,359.2,442.7,357.6z M382.5,367.8c-2-1.4-0.4-6.1,3.8-5.4c38.4,6.6,18.5,72.7-30.5,36.4
		c-5.8-4.7,1.2-15.1,7.5-11c6.8,5.2,20.6,16.7,30.1,6.7C401.6,383.1,390.1,372.4,382.5,367.8z M448.5,371c-0.5,3.2-1.2,6.2-1.5,8.5
		c-1.3,8.8-2.2,20.3,5.1,27c3.1,2.8,8.5,3.9,12.1,1.2c5.3-3.9-0.3-11.4-2.7-15.4c-3.6-5.9-7.2-11.9-10.7-17.9
		C450,373.3,449.2,372.1,448.5,371z M307.8,325c12.6-2,26.1,6.2,30.5,18.2c1.1,3-0.7,6.7-3.4,8.3c-3,1.8-6.3,0.9-8.9-1.1
		c-3.5-2.8-5.1-7.2-9-9.7c-3.2-2.1-7.6-2.2-11.3-1.6c-8.7,1.4-15.6,7.1-23.6,10.4c-1.1,0.5-1.8-1-1.4-1.8
		C285.7,336.7,295.8,327,307.8,325z M429.5,324.5c10-0.9,22,3.5,25.2,13.8c0.1,0.2-0.2,0.5-0.4,0.4c-6.1-2.3-12.8-3.6-19.3-2.5
		c-4.2,0.7-12.4,3.7-12.7,8.5c-0.5,7.4-9.1,9.2-13.2,3.6c-4.1-5.5-0.6-13,3.9-16.9C417.6,327.3,423.3,325.1,429.5,324.5z
		 M333.3,282.6c2.2,2.5,2.9,7.1,0,9.4c-5.2,4.2-10.8,2.6-17,2.9c-5.1,0.3-10,1.1-14.9,2.5c-10.8,3.1-19.5,8.7-28.7,14.8
		c-1.2,0.8-2.4-0.7-1.9-1.9c5.3-10.4,15.6-18.9,25.9-24.1c5.5-2.8,11.5-5.1,17.6-6.1l1.9-0.3C322,278.9,329.2,278,333.3,282.6z
		 M414.9,275.6l1.4,0.3c15.6,3.3,36,9.8,43.4,25.2c0.3,2.2,0,2.6-0.3,2.9l-0.1,0.1c-0.2,0.3-0.4,0.6-1.3,0.9
		c-0.3-0.1-0.5-0.1-0.8-0.2c-3.4-0.9-6.1-2.1-8.7-3.4l-2.8-1.4c-3.3-1.6-6.6-3.1-10.1-4.3c-7.5-2.4-15.1-4.1-22.9-5.1
		c-1.7-0.2-3.3-0.8-4.6-1.7c-1.2-0.9-2.1-2.2-2.6-3.9c-0.5-2.2-0.4-3.9,0.8-5.9c0.9-1.5,2.2-2.5,3.6-3.1
		C411.5,275.4,413.2,275.3,414.9,275.6z"/>
</g>
</svg>
