<?xml version="1.0" encoding="utf-8"?>
<!-- Generator: $$$/GeneralStr/196=Adobe Illustrator 27.6.0, SVG Export Plug-In . SVG Version: 6.00 Build 0)  -->
<svg version="1.1" id="Calque_1" xmlns="http://www.w3.org/2000/svg" xmlns:xlink="http://www.w3.org/1999/xlink" x="0px" y="0px"
	 viewBox="0 0 600 600" style="enable-background:new 0 0 600 600;" xml:space="preserve">
<style type="text/css">
	.st0{fill-rule:evenodd;clip-rule:evenodd;fill:#FFFFFF;}
	.st1{fill-rule:evenodd;clip-rule:evenodd;}
</style>
<g id="head_x2F_mono_x2F_Gray-Short">
	<path id="_xD83C__xDFA8_-Background" class="st0" d="M350.9,526c-22.2,0.1-41.1-6.2-55.5-16.6c-18-6.4-39.6-16.3-52.8-26.7
		c-5.1,1.3-11.3-4.1-15.2-7c-24.4-18.2-43.6-44.9-49.3-71.7c-8.8,11.1-21.2,11.5-33.2,6c-25.1-14.2-24.1-44.1-15.1-66.5
		c-19-42.6-32.1-154.9-3.2-200.2c6-6.8,14.7-10.8,21-17.8c5.6-6.1,10.9-12.3,17.3-17.1c19.8-15,53.8-23.1,75.1-26.8
		c89-19.2,157.4,15.3,238,44.5c-4.6,11.6-11.1,22.2-18.4,32c20,7.5,10.8,24.3-4.7,32.8l-9.2-4.5c14.4,51.5,47.6,179.7,33.3,220.9
		C467.5,471.5,417.4,526.4,350.9,526"/>
	<path id="_xD83D__xDD8D_-Ink_00000061436192539621194980000002558515625180404148_" class="st1" d="M364.9,387.9
		c1.5-2.7,5.1-5.1,8.3-4.8c14.5,1.7,14.5,19.3,8.9,29.5c-5,9.1-15.2,14.4-25.5,13.6c-10.8-0.8-20-7.2-24-17.3
		c-2.7-6.7-3.9-19,3.2-23.5c0.1-0.1,0.4-0.1,0.5,0.1c3.4,4,3.5,9.9,6.5,14.3c2.8,4.1,7.1,7.5,12.1,8c3.8,0.4,7.6-1,9.1-4.4
		c0.8-1.8,0.7-2.8,0.4-4.1l-0.3-1.1C363.2,394.6,362.7,391.7,364.9,387.9z M368.8,310.9c7.6,4.6,19.1,15.3,10.9,26.7
		c-9.6,10-23.3-1.5-30.1-6.7c-6.3-4-13.4,6.3-7.5,11c49,36.3,68.9-29.8,30.5-36.4C368.4,304.8,366.8,309.5,368.8,310.9z M289,279.5
		c4.6-7,15.2-5.9,17.8,2.3c1.4,4.5-0.5,8.5-0.4,13c0.1,3.8-0.2,8-1.3,11.6c-2.6,8.3-10.1,14.2-19,14c-8.8-0.2-16.6-5.8-20.3-13.7
		c-3.7-7.9-2.9-16.1-0.2-24.1c0.1-0.4,0.6-0.6,0.9-0.2c3.2,3.4,5.5,7,8,10.8l2.5,3.9c1.9,2.9,4.7,6.7,8.2,6.5l0.5-0.1
		c1-0.1,0.8,0.1,1.6-1.2c0.4-0.6,0.3-1.8,0.5-2.5l0.1-0.2l0,0v-0.1c-0.1-0.4-0.1-1-0.2-2.2V297C287.3,291.4,285.8,284.4,289,279.5z
		 M406.5,284.1c-0.8-8.9,11.7-10.9,15.8-4.3c2.2,3.4,2.8,7.7,3.3,11.8l0.2,1.9c0.5,4.2,0.7,8.6-1.1,12.5c-2.9,6.2-9.1,9.4-15.8,8.9
		c-6.4-0.5-12.3-4.2-15.4-9.9c-2.8-5-5.5-14.9-2.1-20.2c0.2-0.3,0.6-0.4,0.9-0.1c3.2,2.8,3.7,7.9,5.6,11.6c1.9,3.8,4.9,7.4,9.3,8
		c4.3,0.5,5.9-1.8,4.8-5.8C410.6,293.3,407.1,289.7,406.5,284.1z M292.4,226.6l2-0.8c7-2.6,16.6-5.7,22.3,0c3.5,3.5,4.2,8.7,1.7,13
		c-3,5.2-8.5,5.3-13.8,6.1c-6,0.9-12.1,2.5-17.6,4.9c-6.3,2.7-12.1,6-17.8,9.7c-5.4,3.5-10.8,9.3-17.3,10.3c-0.3,0-0.6-0.1-0.6-0.4
		c-1.5-6.3,2.6-12.6,6.3-17.6c4.4-6,9.8-10.9,15.8-15.3C279.1,232.2,285.7,229.2,292.4,226.6z M419.7,249.2l0.6-0.1
		c4.2-0.7,8.1-0.5,11.3,2.8c2.4,2.6,3.4,5.9,2.2,9.3c-1.1,3.1-3.5,6.3-7,7c-11.8,2.2-24.8,1.9-36.7,0.2c-5.4-0.8-10.9-1.7-16.2-3.2
		l-2.4-0.7c-4.4-1.3-9.4-2.6-12.6-5.8c-1.2-1.2-0.5-2.8,0.9-3.4c5.6-2.2,13.2-1,19.2-1.2c6.9-0.2,13.9-0.7,20.8-1.4
		C406.5,251.9,413,250.4,419.7,249.2z"/>
	<path id="_xD83D__xDD8D_-Ink" class="st1" d="M363.8,531.5c-28.8,3-63.1-3.9-82.3-27.3c-0.6-0.7-0.8-1.5-0.8-2.3
		c0-0.9,0.3-1.7,0.8-2.3c0.5-0.7,1.3-1.1,2.1-1.3c0.7-0.1,1.5,0,2.4,0.4l1.8,1c13.1,7.2,26.7,13.4,41.6,16.1
		c15.3,2.7,30.9,2.4,46.1-1c27.6-6.3,50-22.4,66.5-43.5c18.4-23.6,29.4-53.6,32.2-83.7c3.4-36.4-4.5-72.5-12.7-107.7
		c-8.6-37-18-73.8-28.9-110.2c-0.3-1.1-0.4-2.1-0.3-3.1c-3.2-1.3-6.6-0.9-10.1,0.2c-6.2,2.1-12.4,6.8-17.6,10.8
		c-1.9,1.4-3.6,2.7-5.2,3.8c-6.4,4.4-13.4,7.6-21.3,8c-8.2,0.5-16.2-2-23.6-5.2c-3.8-1.6-7.5-3.3-11.2-5
		c-10.5-4.7-20.9-9.4-32.2-12.5c-15.2-4.1-30.9-6.1-46.6-6c-28.1,0.3-56.3,7.5-73.5,31.3c-7,9.6-11.5,20.7-8,32.6
		c1.9,6.5,5.6,12.3,9.5,17.7l1.4,1.8c2.2,3,4.1,5.9,4.6,9.1c0.5,2.6,0.1,5.4-1.8,8.5c-1.2,1.9-2.7,3.6-4.2,5.4
		c-1.1,1.2-2.2,2.5-3.1,3.8c-1.9,2.7-3.6,5.6-4.9,8.6c-2.6,5.9-3.7,12.2-3.9,18.6c-0.3,7.7,0.8,15.3,1.9,22.8
		c0.8,5.4,1.5,10.7,1.8,16.2c0.1,0.9-0.2,1.7-0.6,2.2c-0.5,0.6-1.2,1-2,1.2c-0.3,0-0.5,0-0.8,0c0.1,0.5,0.2,1,0.3,1.6
		c-0.5-0.7-1.1-1.3-1.7-2c0,0-0.1,0-0.1-0.1c-0.6-0.3-1.1-0.8-1.4-1.5c-0.8-0.8-1.7-1.5-2.6-2.2c-4.8-3.6-10.4-5.7-16-5.8
		c-5.4-0.1-10.8,1.8-15,5.7c-8.3,7.7-10.7,20.4-10.8,31.2c-0.1,11.1,2.5,24.4,12.1,31.2c3.9,2.8,8.6,4.4,13.4,4.5
		c3.9,0,7.7-1.4,11.4-2.7c1.1-0.4,2.3-0.8,3.4-1.2c1.3-0.4,2.5-0.4,3.5-0.1c1.2,0.3,2.1,1.1,2.9,2c0.7,1,1.2,2.1,1.4,3.4
		c0.1,1.2,0,2.5-0.5,3.6c-0.1,0.3-0.3,0.6-0.4,0.8l2.1,3.5c8.1,13.3,16.4,26.4,27.2,37.9c6.2,6.6,12.8,12.8,20.1,18.2l1,0.8
		c0.6,0.5,1.3,1,2.1,1.6c2.1,1.7,4.6,4,7,4.1c0.7,0,1.3-0.1,1.9-0.1c1.3-0.2,2.5-0.2,3.6,0.2c0.9,0.4,1.8,1,2.8,2.4
		c0.6,0.9,1,2.1,1,3.3c0,1.2-0.3,2.4-0.9,3.4c-1.2,2-2.7,3.2-4.3,3.9c-1.8,0.8-3.8,0.9-5.9,0.5c-5.1-0.9-10.7-5.2-14.3-7.9l-0.7-0.5
		c-7.9-6.1-15.5-12.8-22.1-20.3c-11.3-12.8-21.4-27.8-26.6-44.3c-3.7,2.4-8.2,3.6-12.9,3.7c-6.9,0.3-14.2-1.5-19.6-4.1
		c-11.9-5.6-19.1-16.3-22.4-28.5c-3.9-14.2-2.6-30.5,2.3-43.3c0.1-0.4,0.3-0.7,0.4-1.1c-15.3-38.7-20-81.7-18.7-123
		c0.6-19.3,1.9-39.6,6.5-58.5c2-8.5,5.6-16.5,11.3-23.2c3.2-3.8,7.2-6.8,11.2-9.7c3.5-2.6,6.9-5.1,9.8-8.3l1.4-1.5
		c0.3-0.3,0.6-0.7,0.9-1c5-5.6,9.9-10.9,16.1-15.5c7.1-5.3,14.9-9.4,23-12.8c17.5-7.4,36.4-11.8,55-15.2
		c40.1-7.1,81.5-7.5,121.4,2.9C379,81.3,397,88,414.9,94.6c1.7,0.6,3.3,1.2,5,1.8c13.9,5.1,27.9,10.2,41.9,15.4
		c6.5,2.4,13,4.8,19.5,7.1c1.4,0.5,2.8,1.6,3.6,3c0.8,1.3,1,2.9,0.4,4.5c-4,10.1-9,19.5-15.1,28.4c2.1,1.4,3.9,3.4,5.3,5.6
		c1.7,2.8,2.8,6.2,2.8,9.8c0.2,12-10.7,20.1-19.7,25.9c-0.8,0.5-1.7,0.9-2.5,1c8.8,33.5,17.1,67,24.2,100.9l0.5,2.3
		c7.3,35.4,12.1,71.6,5.1,107.4c-6,30.9-19.8,60.7-41.5,83.7C423.1,514.1,394.6,528.3,363.8,531.5z M174,327.8
		c-3.8-12-5.8-25-4.3-37.1c0.9-7.6,3.2-15,6.9-21.7c2.1-3.9,4.7-7.4,7.6-10.8l1-1.1c0.5-0.6,1-1.1,1.1-1.8c0.1-0.4,0-0.8-0.2-1.3
		c-0.5-1.1-1.5-2.2-2.4-3.2c-0.6-0.7-1.1-1.3-1.6-2c-8.3-11.2-14.4-24.5-12.4-38.7c2-13.9,11-26.8,20.7-36.5
		c21.3-21.4,54.3-26.3,83.2-25.2c16.8,0.7,33.6,3.7,49.6,8.8c7.9,2.6,15.6,5.7,23.1,9.2l1.7,0.8c0.9,0.4,1.8,0.9,2.7,1.3
		c5.9,2.9,11.8,5.8,18.1,7.3c12.4,3.1,20.9-3.4,29.7-9.9c3-2.2,6.1-4.5,9.4-6.5l0.7-0.4c5.9-3.4,13-5.7,19.8-5.6
		c5.9,0.1,11.6,2,16.2,6.4c1,0.9,1.5,1.9,1.8,2.9c0.5,0.7,0.9,1.6,1.2,2.6c1.7,6.2,3.3,12.5,5,18.7l1.3-0.9c4-2.6,8.3-5.6,10.3-9.9
		c0.8-1.7,0.6-4.5-0.3-6.5c-0.3-0.7-0.8-1.4-1.4-1.7c-0.4-0.3-1-0.4-1.6-0.4c-1.5,0.2-2.9,0-4.1-0.5c-1.4-0.6-2.4-1.5-3.1-2.6
		c-0.7-1.2-1-2.5-0.9-3.9c0.2-1.2,0.7-2.5,1.7-3.7c6.8-7.9,12.6-16.5,16.9-25.9l-28.8-10.7c-10.3-3.8-20.6-7.6-30.9-11.4l-5.6-2.1
		c-18.7-6.9-37.5-13.6-57-18c-38.7-8.8-79-6.7-117.6,1.5l-2.3,0.5c-16.2,3.5-32.6,7.8-47.4,15.2c-7.3,3.6-14.2,8.1-20.2,13.7
		c-2.6,2.5-5,5.2-7.4,7.9c-3.3,3.8-6.7,7.6-10.6,10.8l-3.7,2.9c-5.4,4.6-10.4,8.9-13.4,15.7c-3.2,7.1-4.8,15-6,22.7
		c-3.2,19.4-4.4,39.1-4.3,58.7c0.2,33,5.2,65.2,11.5,97.4c5.1-7.3,12.2-12.9,21.4-14.1c6-0.8,11.9,0.3,17,3
		C169,323.3,171.7,325.3,174,327.8L174,327.8z M164.4,366.9c-6.7-2.6-13.7-3.4-20.8-2.2c-0.7,0.1-1.4,0-2-0.4
		c-0.6-0.3-1.1-0.9-1.3-1.5c-0.3-0.7-0.3-1.5-0.1-2.1c0.2-0.6,0.7-1.2,1.5-1.5c7.7-3.7,16.2-5.3,24.6-4.1l0.8,0.1
		c4.3,0.6,10.4,2,14.9,4.6c3.6,2.1,6.2,5,6.8,8.7c0.3,2-0.1,4-1.3,5.5c-1.1,1.4-2.8,2.4-4.9,2.3c-3.8-0.1-6.1-1.7-8.8-3.8
		c-0.3-0.3-0.7-0.5-1-0.8C170.3,369.8,167.5,368.1,164.4,366.9z"/>
</g>
</svg>
