<?xml version="1.0" encoding="utf-8"?>
<!-- Generator: $$$/GeneralStr/196=Adobe Illustrator 27.6.0, SVG Export Plug-In . SVG Version: 6.00 Build 0)  -->
<svg version="1.1" id="Calque_1" xmlns="http://www.w3.org/2000/svg" xmlns:xlink="http://www.w3.org/1999/xlink" x="0px" y="0px"
	 viewBox="0 0 600 600" style="enable-background:new 0 0 600 600;" xml:space="preserve">
<style type="text/css">
	.st0{fill-rule:evenodd;clip-rule:evenodd;fill:#FFFFFF;}
	.st1{fill-rule:evenodd;clip-rule:evenodd;}
</style>
<g id="head_x2F_mono_x2F_hat-beanie">
	<path id="Path" class="st0" d="M331.3,75.2c44.8,0,98.5,21.7,103.1,22.1h0.1c2.4,0,11.8,7.2,28.2,21.5L445,153.4l1.4,1.4
		c6.9,6.6,12.7,12.6,17.4,17.3c37.8,38.6,44.6,190.3,35.7,243.2S474.1,520,397.3,520s-162.2-46.2-175.4-60.6
		c-8.8-9.6-18.6-14.2-29.6-13.8c-0.4-0.6-0.9-1.1-1.3-1.7l-1.6-0.2c-15.1-2.2-26-5.1-32.5-8.9c-12.8-7.2-26.9-45.3-26.9-53.7
		c0-8.3-21-68.7-21.4-75.1v-0.2c0-5.3-27.5-29.9-27.5-37.7c0-7.8-5.5-7.3,0-34.8l1.6-8.1c5.8-29.2,17.3-77.7,61.2-98.7
		C192.2,103.3,286.1,75.2,331.3,75.2z"/>
	<path id="_xD83D__xDD8D_-Ink" class="st1" d="M136.5,125.4c24.1-25.6,160.8-65.1,230-56.7l2.1,0.3c5.5,0.7,11,1.8,16.3,3.2
		c17.4,4.1,35.3,10.2,49.6,20.4c12,8.4,49.7,22.1,38.6,44c4.1,7.8,5.7,17.5,2.9,25.2c-0.4,2.7-1.2,5.1-2.2,7.6
		c8.8,13,15.8,27.7,21.4,41.7c9.9,35.2,16,71.9,16.9,107.8c3,68.3-4.5,149.8-64,194c-35.9,28-92.2,28.9-132.6-5.8
		c-2.3-2.7-13.1-10-9.5-11.3c1.1,1.1,2.2,2.2,3.3,3.3c-0.1-0.1-0.1-0.2,0-0.4l-1.1-1c-2-1.8-4.6-4.5-1.6-4c0.1,0.1,0.3,0.3,0.4,0.4
		c0.6,0.4,1.1,0.7,1.5,1l0.2,0.2l-0.1-0.1c-1.7-1.8-2.7-3.6-0.2-2.5l0.3,0.2c1.1,1.2,2.3,2.3,3.4,3.4c0-0.1,0-0.3,0.1-0.4l-1.1-1
		c-1.1-1-0.9-1-0.4-1.9c-2.2-3.1,1.9-1.3,2.2,0c2.6-0.6,4.9,4.3,6.6,4.9c74,56.9,181.4,6.4,179.6-152.1v-3.1
		c-0.5-50.7-4.8-102.8-25.7-148.7c-2-4.4-4.3-8.7-6.8-12.9c-1.7-3.1-3.6-6.2-5.6-9.1c-5.6-0.4-11.1-1.5-16.5-3
		c-1.9-0.5-3.7-1-5.5-1.6c-26.9,1.5-53.2,3.1-80.1,4.6l-8.4,0.5c-22.8,1.5-46.4,3.8-64.9,17.9c-18.1,12.9-18.2,38.2-33.6,52.3
		c-22.1,15-22.2,28.5-26.5,50.6c0.3,16.6,11.9,40.8-9.3,47.8c3.6,5.1-1.4,2.6-1.8,0.9h-0.1c3.2,5.9-1.5,2.2-1.9,0.3
		c-0.2-0.1-0.5-0.2-0.8-0.5c3.2,5.2-2,1.6-1.7,0.6c-6.2-9.5-19-11-27.9-8.5c-0.1,0.3-0.5,0.4-0.8,0.2c-38.2,8.3-28.4,87.4,10.8,79.8
		c1.7-0.3,1.6,0.5,2,0.5c-0.9-2.4,1.6-1.4,1.6-0.9h0.2c0.1,0,0.1,0,0.2,0c-0.9-4.9,4,2.2,3.7,2.5c0.2-0.1,0.3-0.1,0.5-0.2l-0.2-0.5
		c-0.8-2.2-0.7-1.3-0.7-2.5c-0.6-1.5-0.7-0.9-0.5-1.9c2.2-1.7,2.8,3.4,3.5,3.8c-1.2-1.7-0.3-3.1,0.9-2.2c8.8,18.6,20.2,36,34.9,49.7
		c1.6,1.3,3.2,2.5,4.9,3.7c6.3,5.5,15.9,9,21.7,13.8c0,0.1,0,0.2-0.1,0.3l0.1,0.1l0,0l0.1,0.1l2,1c0.6,0.5,1.1,1.1,1.6,1.7
		s1,1.2,1.3,1.9c0.2,0.8-0.2,1.2-1,0.8c-0.4-0.1-0.7-0.3-1.1-0.4c0,0,0,0,0.1,0.1c0.1,0.2,0.9,2,0,1.7h-0.1c-0.5-0.2-1-0.4-1.5-0.6
		c0.6,0.7,1.1,1.5,1.5,2.1c0.5,0.5,0.8,1.1,0.9,1.8c0,0.4-0.2,0.5-0.6,0.5c-0.6-0.2-1.1-0.4-1.7-0.6l0.2,0.3c0.4,0.8,1,2.1,0,1.7
		c-0.9-0.3-1.7-0.6-2.5-0.9c-0.1,0.1-0.2,0.2-0.5,0.1c-2.7-1-5.2-2.1-7.7-3.5c-2.2-1.6-4.4-3.1-6.5-4.7c-2.1-1.2-4-2.6-5.9-4.1
		c-12.6-8.2-23.7-18.5-32.5-30.1c-14.7,12.7-44.1,0.6-62.2-9.4c-16.1-8.9-22.4-25.4-24-43.1c-3.4-23.9-22.9-32.1-21.6-84.5h-0.1
		c-0.7-0.2-1.4-0.5-2-0.9c-0.7-0.3-1.3-0.7-1.9-1.2l-0.7-1l0,0c-0.4-0.2-0.7-0.4-1-0.6l-0.1,0.2c-0.4,0.5-0.1-0.3-0.1-0.4l-1.3-1.7
		c-3-4.1-6.3-8.7-9-12.4l-0.1,0.1c-0.1,0.1-0.1,0.2-0.1,0.2c-6.4-9.2-12.4-20.3-14.1-31c-2-8.3-1.2-16.8,0.5-24.5
		C80.6,212.1,104.7,151.4,136.5,125.4z M310,496.6l-0.4-0.4L310,496.6c0.1,0.3,0.3,0.5,0.6,0.7c0-0.1,0-0.1,0-0.2
		C310.4,497,310.2,496.8,310,496.6z M366.1,82.1c-46.9-4-93,6.3-137.8,18.8l-3.1,0.9c-25.5,7.3-52.4,13.8-73.9,29.3
		c-30.1,23-45.6,59.6-59.1,93.4c-11.8,25.1-5.8,53.4,12,71c1.9-17.4,5-34.3,10-51.1c1-2.6,0.3-3.5,2.5-3.8
		c3.4,45.2-13.2,78.6,19.5,132.2c14.2,25.3-2.2,43.8,37.8,57.1l1.1,0.4c8.4,3.2,17.5,5.6,25.6,3.9L200,433c-0.7-1.2-1-1.8,0.1-2.3
		c0-0.1-0.1-0.1-0.1-0.2c-0.9-1.7-1.7-3.3-2.5-5c-0.3,0.1-0.7,0.2-1,0.3c0.2,0.4,0.2,0.8-0.4,1c-2.2,0.8-4.5,1.1-6.8,0.9h-0.5
		c-2.6-0.2-4.3-0.6-5.7-1.1c-0.5-0.1-1-0.2-1.5-0.3c-4.7-1.1-9.8-3.7-13-6.4c-37.1-21-33.2-92.7,12.4-99.5
		c0.9-45.1,22.4-121.2,58-164.2c32.2-39.5,120.1-56.7,181.2-50.6c0.9,0.3,1.8,0.6,2.7,0.9c9.4,0.8,18.4,5,27.9,7
		c-6.8-5.1-14.5-8.5-22.4-11.3c-15.8-9.7-33.9-14.9-51.3-18.6C373.5,82.7,369.9,82.2,366.1,82.1z M179.1,356.7
		c2.5-1.3,2.2,0,2.7-0.4c17.7-1.4,36.7,14,46.6,26.9c-0.8,0.8-2.9-1.6-3.3-2c-0.1,0.1-0.1,0.1-0.2,0.1l0.3,0.4c4,5.7-3.9-1-4.7-2.4
		c-0.1,0.1-0.3,0.1-0.4,0.1c0.6,0.6,2.6,2.2,2.9,3.4l0.5,0.4c4.8,4.1,4.4,7.2-1,1.4c0.1,0.3,0.2,0.5,0.1,0.7l0.2,0.1
		c2.7,1.9,4.9,7.1-0.7,1.7c0.6,3.9-5.6-3.7-5.8-3.6c-10.6-8.3-26.3-16.4-39.6-17.5l-0.5-0.1c-2.4-0.3-3.6-1-2.7-2.6
		c-3-0.7-2.3-2.2-0.9-2.1c-2.1-1.4-0.2-2.7,1-2.2c-0.8-2.3,2.5-0.8,2.9-1.1C178.3,355.1,178.8,357.4,179.1,356.7z M142,211.3
		c8.5-3.1,33.5,6.2,31.5,18.5c-1.2,2.8-5.1,4.4-7.9,2.9l-3.6-2.4c-6.3-4.2-11.9-7.9-18.7-11.6C139.7,216.9,138.1,213,142,211.3z
		 M190.3,193l-3.3-2.1c-17.7-11.6-42.7-29.1,1.7-11c5.1,2.2,11.8,3.4,14.5,8.3C207.5,197.1,196.1,197.6,190.3,193z M192.3,141.1
		c-1.4-5.4,16.2,0.9,21.4,2.6l0.8,0.3c5,1.9,10.7,3.6,13.7,7.9c3.5,6-3.6,7.2-8,4.5C211.2,150.5,201.3,146.1,192.3,141.1z
		 M237.2,116c-9.9-10.9,16.7-0.5,20.6,2.4l0.1,0.1c3,2.1,2.4,6.6-0.4,7.9C249.6,126.6,243.7,120,237.2,116z M282.4,104.1
		c-15.8-11.4,5-6,12.2-1.5C299.6,107,294.5,114.3,282.4,104.1z"/>
</g>
<g id="face_x2F_Explaining">
	<path id="_xD83D__xDD8D_-Ink_00000134935930553886617580000014141057856529642376_" class="st1" d="M325.1,385.9
		c12.2-14.2,32.9-15.2,50-11.7c11,2.3,21.6,6.1,32.8,7.5c5.2,0.7,10.5,0.9,15.7,0.8c5.1-0.1,10.3-1.1,15.4-0.9
		c0.8,0,1.1,1.1,0.4,1.5c-7,4.3-16.5,5.7-24.8,6.6c0,0.6,0.1,1.2,0.1,1.7c0.2,1.4,0.4,2.7,0.6,4.1c0.4,3.1,0.8,6.2,1.2,9.2
		c0.8,6.1,1.1,12.3,2.6,18.2l0.3,1c0.3,1.2,0.4,2.4,0.3,3.4l0.3-0.2l1.1-0.5l0.7-0.3c2.6-1.2,5-2,8-1.8c2.3,0.2,4.2,1.8,4.2,4.2
		c0.1,11-14.7,14.5-23.2,16.6l-2.5,0.6c-10.7,2.6-21.7,4.9-32.8,5.5c-17.7,0.9-37.7-4-49.3-18.4
		C315.4,419.5,313.4,399.5,325.1,385.9z M405.7,431.9c-1.9-16.5-22.1-17.4-28-6.9c-2.6-14.6-40.9-1.3-37.9,1.6
		c11.3,11,28.6,12,43.4,9.9C390.7,435.5,398.3,433.9,405.7,431.9z M383.2,388.7l-5.1-0.7l-2-0.3c-12.6-1.7-26.8-2.6-37.2,5.5
		c-3.8,3-5.9,6.8-6.7,11c9.8-1.5,19.7-2.6,29.6-3.5l2.7-0.2c6.2-0.6,12.4-1.1,18.6-1.8l4.4-0.4l4.4-0.5c1.5-0.2,12-0.7,13.9-0.3
		c0.2-1.8,0.5-5.6,0.9-7.3c-7.4,0.3-14.8-0.3-22.1-1.3L383.2,388.7z M406.6,315c7.6,4.6,19.1,15.3,10.9,26.7
		c-9.6,10-23.3-1.5-30.1-6.7c-6.3-4-13.4,6.3-7.5,11c49,36.3,68.9-29.8,30.5-36.4C406.2,308.9,404.7,313.6,406.6,315z M420.2,334.3
		l0.4-0.2l0.1-0.1c0.2-0.1,0.1-0.1-0.4,0l-0.4,0.1v0.3C420,334.4,420.1,334.4,420.2,334.3z M323.4,293.5v-0.2
		c0-6.4,3.7-20.9,12.9-20.9c5.7,0,9.2,9.9,9.8,20.1v0.4c0.3,6.4-1.5,20.2-9.8,20.2C327.9,313.1,323.5,300,323.4,293.5L323.4,293.5z
		 M458.6,291.5v-0.2c0-6.4-3.7-20.9-12.9-20.9c-5.6,0-9,9.4-9.8,19.4l-0.1,0.8c-0.4,6.1,1.3,20.6,9.8,20.6
		C454.1,311.1,458.5,298,458.6,291.5L458.6,291.5z M328.7,228.9c7.5-1.1,17.4,1,20.9,8.6c1.6,3.4-0.3,7.1-4.2,7.3
		c-9.5,0.5-18-1.7-26.3,4.5c-3.6,2.7-6.6,6.3-9.1,10l-1,1.4l-0.8,1.1c-1.7,2.5-3.3,5.3-3.1,8.3c0.1,0.9-0.8,1.8-1.7,1.7
		c-5.5-0.2-6-7.1-5.3-11.2c1.3-7.6,5-14.8,10.1-20.5C313.6,234.2,320.7,230.1,328.7,228.9z M431.9,238.2c5.2-3.3,11.8-4.6,17.8-4.1
		c11.9,1,32,11.1,29.3,25.7c-0.8,4.5-7.1,6.9-10.7,4.4c-4-2.7-4.9-6.8-7.9-10.4c-2.4-2.8-5.3-4.8-8.5-6.5c-3.1-1.7-6.8-2.7-10.4-3.1
		l-0.6-0.1c-2.1-0.2-13-0.1-11.4,3.9c0.3,0.8-0.9,1.4-1.4,0.8C424.8,245.1,428.5,240.3,431.9,238.2z"/>
</g>
</svg>
