<?xml version="1.0" encoding="utf-8"?>
<!-- Generator: $$$/GeneralStr/196=Adobe Illustrator 27.6.0, SVG Export Plug-In . SVG Version: 6.00 Build 0)  -->
<svg version="1.1" id="Calque_1" xmlns="http://www.w3.org/2000/svg" xmlns:xlink="http://www.w3.org/1999/xlink" x="0px" y="0px"
	 viewBox="0 0 473 567" style="enable-background:new 0 0 473 567;" xml:space="preserve">
<style type="text/css">
	.st0{fill-rule:evenodd;clip-rule:evenodd;fill:#FFFFFF;}
	.st1{fill-rule:evenodd;clip-rule:evenodd;}
</style>
<g id="head_x2F_mono_x2F_Medium-Bangs-3">
	<path id="_xD83C__xDFA8_-Background" class="st0" d="M267.6,39c56.8,0,127.9,64.8,148.7,92.3c17.5,23.2,15,142.6,15,213.4
		c0,14.8-6.7,42.8-9.1,57c-8.9,51.9-47.7,95.5-124.5,95.5c-62.5,0-110.7-19.8-157.2-70.5c-10.6-11.6-62.5,29.8-73.1,14.9
		c-27.7,0-50.9-258.8,3.5-336.4S210.8,39,267.6,39z"/>
	<path id="_xD83D__xDD8D_-Ink" class="st1" d="M96.9,57.2c32.8-29.8,76.5-44.2,120.6-43.1c22.8,0.6,45.6,4.9,67.2,12.3
		c10.8,3.7,21.2,8.6,31.2,14.1c3.6,2,6.9,4.3,10.1,6.8l0.8,0.6h0c8.6,3.1,16.2,8.6,23.2,15.1c13.9-1.1,27.9,0.1,41.4,4.4
		c18.7,6,36,16.9,48.2,32.5c14.2,18.1,18.9,40.1,17.2,62.7l-0.3,3.9c-1.7,20-4.6,45.8-21.1,58.9c-1.2,1-2.6,1.8-4.1,2.2
		c10.6,18.1,19.3,38.3,24.5,58.6c19.9,77.7,4.6,158.7-19.3,233.6c-2,6.2-11.3,10.3-16,4.2c-8.5-10.8-20.8-19-34.7-20.5
		c-8.6-1-17.1,0.8-25.1-3.1c-3.2-1.5-6.2-4-8.4-7.1c-13.6,5.2-28.3,7.6-42.9,7c-23.9-1-49.5-9.3-65.9-27.4c-2.6-2.9-3.3-6.2-2.7-9.1
		c2.1-0.7,4.2-1.3,6.4-1.6c20.9,12.3,43.9,20.5,68.6,21c14.3,0.3,28.2-1.7,39.8-10.6c2.5-1.9,4.8-4.1,6.9-6.4
		c24.2-15.6,41.3-42,49.4-70.4c7.6-26.4,6.6-53.9,4-81l-1.4-14.3c-2-21-3.9-42-4.4-63.1l0.2,0l0,0c5.1-0.3,5.1-8.3,0-8
		c-13.3,0.9-26.5-1.3-39.8-0.4c-0.1-6.3-0.6-12.5-2.4-18.6c-1.1-3.5-7.1-4.1-7.7,0c-0.9,5.5-1.2,11-1.3,16.6
		c-19.9-0.3-39.7-1.9-59.6-1.2c-3.7-3.9-4.8-10.8-6.5-15.7c-0.2-0.7-0.5-1.4-0.8-2.1c-1.5,6.9-3.6,13.6-6.5,20.2l-4.9,0
		c-27.7,0.1-55.9,1-82.9,6.7c-1.9-1.4-3-4-3.3-6.2c-2-14.9-4.8-29.3-9.7-43.5l-0.7-2c-0.1-0.2-0.1-0.3-0.2-0.5
		c-3.7,5.9-8,11.4-12.8,16.5c-2.8,3-5.7,5.9-8.7,8.7c-2.9,3.2-6,6.5-8.9,9.7c0.1,0.6,0.2,1.2,0.3,1.8c0.9,6.8,1,13.6,0.3,20.4
		c-1.2,12.3-4.7,24.1-10.2,35.1l-0.2,1.1c-0.8,5.1-2,10.4-4.9,14.3c3.5,3.9,6.2,8.6,7.8,13.8c1.4,4.6-5,8.7-8.4,4.9
		c-2.6-3-5.6-5.5-8.8-7.5c-0.2,0.3-0.6,0.4-1,0.2c-9-5-24.3-3.5-33.2,1.2c-11.2,5.8-15.5,17.8-14.3,30c1.2,11.6,6.3,25.2,16.1,31.1
		c4.5,2.7,8,3,12.8,1.6c1.5-0.4,3.4-1.7,4.3-2.3l0.8-0.6c3.1-2.5,6.1-4.2,9.8-4.3c3.8-1.2,7.6,0.5,9.1,4.4l0.1,0.3
		c0.7,2,1.9,4.6,1.7,7.7c-0.3,3.3-1.8,6.3-4.1,8.8c-0.4,0.4-0.8,0.8-1.2,1.2c39.1,42.3,44.1,108.3,24.1,161.2
		c-0.9,2.3-1.8,4.6-2.8,6.9c-3.4,7.8-16.2,5.4-17.9-2.3c-0.5-2.3-1-4.6-1.6-6.9c-1.1-4.2-2.3-8.4-3.7-12.5l-0.5-1.5
		c-1.2-3.4-2.3-6.8-3.5-10.2l-0.1-0.4c0-0.2-0.1-0.3-0.1-0.5l-2,4.4l0,0l-6.2,13.4c-2.9,6.2-12.1,2.8-12.4-3.2l0-0.2
		c0-1.1-0.1-2.2-0.1-3.3c-0.4-8.2-1.9-16.1-4.1-23.9l-0.8,1c-12,14.9-26.2,28.8-45.5,32.3c-4.9,0.9-10.4-4.2-7-9.1
		c1.4-2,2.7-4.1,4-6.2c-1.1-0.5-2.1-1-3.1-1.6c-7.3-4.1-13.5-10-18.5-16.7c-10.7-14.1-14.6-31.9-15.5-49.4
		c-1-18.4,0.6-37.8,5.7-55.6c2.2-7.7,5.1-15.1,8.5-22.2c-0.2-0.6-0.5-1.3-0.7-1.9c-3.7-10.3-6.7-20.8-9.2-31.4
		c-5.1-21.4-7.8-43.5-8.1-65.5C8.4,236,15.2,196,29.6,159.2C44.4,121.3,66.6,84.8,96.9,57.2z M78.5,401.9c-2.7-4.3-9.5-0.4-7,3.9
		l0.1,0.2c4.3,6.8,6.3,14.5,8.8,22.1c1.6,4.9,9.3,2.8,7.7-2.1l-0.5-1.6C85.1,416.6,82.9,408.8,78.5,401.9z M102.2,320.3l1.8-0.9
		c5.7-2.7,10.7-4.6,17.4-2.2c9,3.2,18.7,13.3,12.6,23.1c-2.2,3.6-6.2,5-10.3,4.2c-6.9-1.4-8.7-7.7-12.2-12.8l-0.6-0.9
		c-2.1-3.1-4.8-7.4-8.4-8.6C101.6,322,101.3,320.7,102.2,320.3z M107.2,112.4l0.6-0.5c3.9-3.4-1.8-9.1-5.7-5.7
		c-17.6,15.6-23.7,39.9-32.9,60.7c-2.1,4.7,4.8,8.8,6.9,4C84.9,151.2,90.7,127.4,107.2,112.4L107.2,112.4z M319,105.6
		c-4.6-2.1-8.6,4.6-4.2,6.8l0.2,0.1c15.6,7,22.2,22.9,28.5,37.7c2,4.7,8.9,0.7,6.9-4l-1.1-2.7C342.6,128.3,334.9,112.8,319,105.6z
		 M343.4,96c-4.9-1.7-7,6-2.1,7.7c13.2,4.6,22.2,14.5,29.9,25.8c2.9,4.2,9.8,0.2,6.9-4C369.1,112.3,358.6,101.3,343.4,96z"/>
</g>
<g id="face_x2F_Awe">
	<path id="_xD83D__xDD8D_-Ink_00000110468702134171002770000016695080155390675877_" class="st1" d="M239.3,395.1
		c0.2-0.2,0.5-0.3,0.8-0.1c4.3,2.7,4.8,11.9,4.9,17.3c1.8,0.5,3.6,1,5.2,1.4c3.6,0.8,7.1,1.5,10.7,2.2l2.7,0.6
		c8.9,1.9,18,3.3,27.1,4c8.8,0.7,17.9,0.9,26.7-0.2c3.8-0.5,7.5-1.3,11.2-2.4c4.3-1.3,7.8-3.4,11.8-5.3c10.1-4.7,18.5,9,8.8,15.1
		c-8.3,5.2-19.6,7-29.2,7.8c-9.8,0.8-19.6-0.1-29.2-1.6c-10.5-1.7-20.7-4.3-30.6-8c-4.2-1.6-8.3-3.5-12.2-5.6l-1.1-0.6
		c-0.7-0.4-1.3-0.7-2-1.1c-0.7,6.6-2.9,13-5.5,19.2l-0.1-0.1c-1.4,4.9-6.5,7.9-11.6,5.7c-6-2.5-6.4-9.1-2.9-13.8l0.2-0.2
		c4.1-5.3,6.6-11.8,8.9-18c1.1-3.2,2.2-6.4,3.1-9.7C237.4,399.2,237.4,396.9,239.3,395.1z M393.1,342.4c-3.5,10.7-11.3,18.9-22,22.5
		c-10.7,3.6-22.5,2.3-33.4,0.3c-2.4-0.4-4.8-0.9-7.2-1.4c2,1.2,3.7,2.9,5.4,4.8c2.5,2.7,4.7,5.5,5.4,8.9c0.7,3.3-0.4,5.9-2.3,7.8
		c-3,2.9-7.8,4.5-11.8,5.4c-9.1,2-18.2,1.7-27.3-0.4c-2.3-0.5-3.9-1.8-4.8-3.4c-1.1-2-1.2-4.4-0.5-6.6c0.6-2.2,1.9-4.3,3.9-5.4
		c1.6-0.9,3.6-1.2,5.8-0.4c4.5,1.5,9,2.5,13.8,2.6c2,0,4,0,6.1-0.2c1.1-0.1,2.3-0.2,3.4-0.4c-0.7-0.9-1.3-1.8-1.9-2.7
		c-0.7-1.1-1.5-2.2-2.2-3.3c-2-3.2-3.7-6.5-5.1-10c-0.5-1.1-0.9-2.2-1.3-3.4c-0.1-0.2-0.1-0.3-0.2-0.5c-0.1-0.1-0.3-0.2-0.4-0.3
		c-2.9-2.5-5.3-5.5-7-9.3c-4.6-10.3-3.9-23-1.1-33.7c2.2-8.5,7.2-16.4,13.7-21.8c1.1-1.9,1.9-3,2.8-4c3.8-3.9,9-6.5,14.1-8.1
		c11.4-3.6,23.9-1,33.6,5.8c8.9,6.3,15.9,15.7,19.7,26.3C395.7,321.4,396.4,332.3,393.1,342.4z M237.5,277.4
		c13.6-0.1,27.4,3.9,38.4,11.9c10.6,7.7,18.8,19,18.8,32.5c0,13.2-7,26.1-14.8,36.3c-8.8,11.4-20.2,16.9-34.6,17.1
		c-7.5,0.1-15-0.6-22.4-1.5l-4-0.5c-5.5-0.7-11-1.5-16.2-3.4c-24.7-9-25.5-41.4-16.3-62.1c7.1-16,25-31.6,42.8-29.7
		C231.9,277.6,234.6,277.4,237.5,277.4z M260.4,292.6c-17-7.6-37.7-5.4-54.2,2.8c-6.5,7.1-11.3,16.1-13.3,24.4
		c-2.1,8.8-1.8,18.3,1.3,26.8c3.8,10.4,13.1,13,23.2,14.6l3.9,0.6l1.6,0.2c9.9,1.5,20.7,2.6,30.2,0.8c10.6-2.1,17.3-10.6,22.6-19.4
		l0.2-0.4c5.5-9.2,10.1-20.4,5.5-30.9C277.7,303.2,269.1,296.5,260.4,292.6z M360.9,295.3c-5.8-3.2-12.5-3.8-18.8-1.7
		c-2.7,0.9-5.1,2.4-7.3,4.1l-0.9,0.7c-2.8,2.1-5.4,3.2-7.5,6.1L326,305c-1.1,1.6-2.9,2.2-4.6,2c-2,5.4-2.8,11.3-2.8,17l0,0.8l0,0.8
		c0.1,6.8,1.3,15.2,6.7,19.7c4.9,4.2,12.3,5.2,18.9,5.7l5.1,0.4l1.4,0.1c7,0.5,14.6,0.3,20.5-3.8c5.1-3.6,7.5-9.7,8.1-15.7
		C380.7,317.8,373.5,302.3,360.9,295.3z M233.7,296.6c9.4-4.8,20.6-3.6,28.6,2.4c-0.7,0.1-1.4,0.3-2.1,0.7c-1.8,0.9-2.9,2.7-3.3,4.6
		c-0.5,2.2,0.6,4.2,2.8,4.9c1.9,0.6,4.1,0.9,5.8-0.3c0.9-0.6,1.5-1.4,2-2.4l0.1-0.1l0.1-0.1l0,0c0,0,0,0-0.1,0.1
		c0.1-0.1,0.1-0.2,0.2-0.4c0.1-0.1,0.1-0.3,0.2-0.5c0.1-0.1,0.2-0.2,0.3-0.3c1.4,2.2,2.6,4.7,3.3,7.5c4.6,17.9-14.3,36.5-31.2,38.3
		c-6.4,0.7-12.2-0.8-17-3.8c0-0.1,0.1-0.1,0.1-0.2c1.9,0.3,4.3-0.5,5-2.7c1.8-5.5,0-12-6.1-13.8c-3.9-1.2-7.8,0.1-10.6,2.8
		c-2.1-5.1-2.8-10.9-1.9-16.7c1.4-8.2,6.3-15.5,14-18.9C227.5,296.2,230.7,295.8,233.7,296.6z M332.4,307.6l0.3-0.4
		c2.9-4.5,8.4-9.9,14.2-8.4c0.8,0.2,1.6,0.6,2.3,1c3.2-0.4,6.5,0.3,9.2,2l-0.1,0.2c0,0,0,0.1,0,0.1c-0.2,1.1-0.1,2.1,0.4,3.1
		c0.5,1.1,1.3,2.1,2.4,2.7c0.7,0.4,1.6,0.6,2.4,0.6c1.2,0,2.3-0.6,3.2-1.4c0.5-0.4,0.8-1.1,1-1.8c0.4,0.4,0.9,0.9,1.3,1.4
		c6.7,8.7,5.7,22.8-2.1,30.6c-0.3,0.3-0.6,0.6-1,0.9c-3.2,4.4-8.1,7.3-13.9,7.9c-5.4,0.6-10.9-1.1-15-4.3c0.3-0.2,0.6-0.4,0.9-0.7
		c0.7-0.8,1.3-1.6,1.7-2.6c0.1-0.2,0.2-0.5,0.3-0.7l0.1-0.4c0-0.1,0.2-0.7,0.2-0.6l0,0l0.1-0.2c0.7-1.9,0.4-4-1.3-5.2l-0.2-0.1
		c-0.6-0.3-1.3-0.5-2-0.5c-1.8-2.2-4.5-2.7-7-2.1l-0.1-0.7c0-0.1,0-0.2,0-0.4C327.7,321.2,328.6,313.8,332.4,307.6z M245.6,242.4
		l0.6-0.1c4.9-0.7,8.2,0.1,11.4,4.3c1.5,2,1.1,5,0,7.1c-3.4,6.6-12.7,5.2-19,6.5c-6.1,1.3-12.3,3-18,5.6c-5.9,2.6-11.4,5.6-16.8,9.1
		c-4.9,3.2-9.3,7.9-14.8,9.8c-0.2,0.1-0.6-0.1-0.5-0.4c0.4-6.3,5.7-12.1,9.8-16.6c4.7-5.2,10.5-9.8,16.5-13.5
		c6.2-3.8,12.8-6.9,19.8-9.1C238.1,243.9,241.9,243,245.6,242.4z M320.4,250.9c6.2-9,21.5-7.3,30.6-4.9c11.4,3,23.7,9.1,31.7,18
		c7.1,7.9-3.5,18.2-11.6,11.6l-2.1-1.8l-1.4-1.1c-6.2-5-12.3-9.6-19.8-12.9c-8.8-3.9-17.7-5.8-27-7.9
		C320.4,251.8,320.2,251.3,320.4,250.9z"/>
</g>
</svg>
