<?xml version="1.0" encoding="utf-8"?>
<!-- Generator: $$$/GeneralStr/196=Adobe Illustrator 27.6.0, SVG Export Plug-In . SVG Version: 6.00 Build 0)  -->
<svg version="1.1" id="Calque_1" xmlns="http://www.w3.org/2000/svg" xmlns:xlink="http://www.w3.org/1999/xlink" x="0px" y="0px"
	 viewBox="0 0 600 600" style="enable-background:new 0 0 600 600;" xml:space="preserve">
<style type="text/css">
	.st0{fill-rule:evenodd;clip-rule:evenodd;fill:#FFFFFF;}
	.st1{fill-rule:evenodd;clip-rule:evenodd;}
</style>
<g id="head_x2F_mono_x2F_Medium-Bangs-3">
	<path id="_xD83C__xDFA8_-Background" class="st0" d="M327.4,85.5c49.8,0,112.2,56.8,130.5,81c15.4,20.4,13.2,125.1,13.2,187.2
		c0,13-5.9,37.5-8,50c-7.8,45.5-41.8,83.8-109.2,83.8c-54.8,0-97.1-17.4-137.9-61.8c-9.3-10.2-54.8,26.1-64.1,13.1
		c-24.3,0-44.7-227,3.1-295.1S277.5,85.5,327.4,85.5z"/>
	<path id="_xD83D__xDD8D_-Ink" class="st1" d="M177.6,101.5c28.8-26.1,67.1-38.8,105.8-37.8c20,0.5,40,4.3,59,10.8
		c9.5,3.2,18.6,7.5,27.4,12.4c3.2,1.8,6.1,3.8,8.9,6l0.7,0.5l0,0c7.5,2.7,14.2,7.5,20.4,13.2c12.2-1,24.5,0.1,36.3,3.9
		c16.4,5.3,31.6,14.8,42.3,28.5c12.5,15.9,16.6,35.2,15.1,55l-0.3,3.4c-1.5,17.5-4,40.2-18.5,51.7c-1.1,0.9-2.3,1.6-3.6,1.9
		c9.3,15.9,16.9,33.6,21.5,51.4c17.5,68.2,4,139.2-16.9,204.9c-1.8,5.4-9.9,9-14,3.7c-7.5-9.5-18.2-16.7-30.4-18
		c-7.5-0.9-15,0.7-22-2.7c-2.8-1.3-5.4-3.5-7.4-6.2c-11.9,4.6-24.8,6.7-37.6,6.1c-21-0.9-43.4-8.2-57.8-24c-2.3-2.5-2.9-5.4-2.4-8
		c1.8-0.6,3.7-1.1,5.6-1.4c18.3,10.8,38.5,18,60.2,18.4c12.5,0.3,24.7-1.5,34.9-9.3c2.2-1.7,4.2-3.6,6.1-5.6
		c21.2-13.7,36.2-36.8,43.3-61.8c6.7-23.2,5.8-47.3,3.5-71.1l-1.2-12.5c-1.8-18.4-3.4-36.8-3.9-55.4h0.2l0,0c4.5-0.3,4.5-7.3,0-7
		c-11.7,0.8-23.2-1.1-34.9-0.4c-0.1-5.5-0.5-11-2.1-16.3c-1-3.1-6.2-3.6-6.8,0c-0.8,4.8-1.1,9.7-1.1,14.6
		c-17.5-0.3-34.8-1.7-52.3-1.1c-3.2-3.4-4.2-9.5-5.7-13.8c-0.2-0.6-0.4-1.2-0.7-1.8c-1.3,6.1-3.2,11.9-5.7,17.7h-4.3
		c-24.3,0.1-49,0.9-72.7,5.9c-1.7-1.2-2.6-3.5-2.9-5.4c-1.8-13.1-4.2-25.7-8.5-38.2l-0.6-1.8c-0.1-0.2-0.1-0.3-0.2-0.4
		c-3.2,5.2-7,10-11.2,14.5c-2.5,2.6-5,5.2-7.6,7.6c-2.5,2.8-5.3,5.7-7.8,8.5c0.1,0.5,0.2,1.1,0.3,1.6c0.8,6,0.9,11.9,0.3,17.9
		c-1.1,10.8-4.1,21.1-8.9,30.8l-0.2,1c-0.7,4.5-1.8,9.1-4.3,12.5c3.1,3.4,5.4,7.5,6.8,12.1c1.2,4-4.4,7.6-7.4,4.3
		c-2.3-2.6-4.9-4.8-7.7-6.6c-0.2,0.3-0.5,0.4-0.9,0.2c-7.9-4.4-21.3-3.1-29.1,1.1c-9.8,5.1-13.6,15.6-12.5,26.3
		c1.1,10.2,5.5,22.1,14.1,27.3c3.9,2.4,7,2.6,11.2,1.4c1.3-0.4,3-1.5,3.8-2l0.7-0.5c2.7-2.2,5.4-3.7,8.6-3.8c3.3-1.1,6.7,0.4,8,3.9
		l0.1,0.3c0.6,1.8,1.7,4,1.5,6.8c-0.3,2.9-1.6,5.5-3.6,7.7c-0.4,0.4-0.7,0.7-1.1,1.1c34.3,37.1,38.7,95,21.1,141.4
		c-0.8,2-1.6,4-2.5,6.1c-3,6.8-14.2,4.7-15.7-2c-0.4-2-0.9-4-1.4-6.1c-1-3.7-2-7.4-3.2-11l-0.4-1.3c-1.1-3-2-6-3.1-8.9l-0.1-0.4
		c0-0.2-0.1-0.3-0.1-0.4l-1.8,3.9l0,0l-5.4,11.8c-2.5,5.4-10.6,2.5-10.9-2.8v-0.2c0-1-0.1-1.9-0.1-2.9c-0.4-7.2-1.7-14.1-3.6-21
		l-0.7,0.9c-10.5,13.1-23,25.3-39.9,28.3c-4.3,0.8-9.1-3.7-6.1-8c1.2-1.8,2.4-3.6,3.5-5.4c-1-0.4-1.8-0.9-2.7-1.4
		c-6.4-3.6-11.8-8.8-16.2-14.7c-9.4-12.4-12.8-28-13.6-43.3c-0.9-16.1,0.5-33.2,5-48.8c1.9-6.8,4.5-13.2,7.5-19.5
		c-0.2-0.5-0.4-1.1-0.6-1.7c-3.2-9-5.9-18.2-8.1-27.5c-4.5-18.8-6.8-38.2-7.1-57.5c-0.8-34.7,5.2-69.7,17.8-102
		C131.5,157.7,151,125.7,177.6,101.5z M161.5,403.9c-2.4-3.8-8.3-0.4-6.1,3.4l0.1,0.2c3.8,6,5.5,12.7,7.7,19.4
		c1.4,4.3,8.2,2.5,6.8-1.8l-0.4-1.4C167.3,416.8,165.3,410,161.5,403.9z M182.3,332.3l1.6-0.8c5-2.4,9.4-4,15.3-1.9
		c7.9,2.8,16.4,11.7,11.1,20.3c-1.9,3.2-5.4,4.4-9,3.7c-6.1-1.2-7.6-6.8-10.7-11.2l-0.5-0.8c-1.8-2.7-4.2-6.5-7.4-7.5
		C181.7,333.8,181.5,332.7,182.3,332.3z M186.6,149.9l0.5-0.4c3.4-3-1.6-8-5-5c-15.4,13.7-20.8,35-28.9,53.3
		c-1.8,4.1,4.2,7.7,6.1,3.5C167.1,184,172.2,163.1,186.6,149.9L186.6,149.9z M372.4,144c-4-1.8-7.5,4-3.7,6l0.2,0.1
		c13.7,6.1,19.5,20.1,25,33.1c1.8,4.1,7.8,0.6,6.1-3.5l-1-2.4C393.2,163.9,386.4,150.3,372.4,144z M393.9,135.6
		c-4.3-1.5-6.1,5.3-1.8,6.8c11.6,4,19.5,12.7,26.2,22.6c2.5,3.7,8.6,0.2,6.1-3.5C416.4,149.9,407.2,140.2,393.9,135.6z"/>
</g>
<g id="face_x2F_Awe">
	<path id="_xD83D__xDD8D_-Ink_00000110468702134171002770000016695080155390675877_" class="st1" d="M302.5,398
		c0.2-0.2,0.4-0.3,0.7-0.1c3.8,2.4,4.2,10.4,4.3,15.2c1.6,0.4,3.2,0.9,4.6,1.2c3.2,0.7,6.2,1.3,9.4,1.9l2.4,0.5
		c7.8,1.7,15.8,2.9,23.8,3.5c7.7,0.6,15.7,0.8,23.4-0.2c3.3-0.4,6.6-1.1,9.8-2.1c3.8-1.1,6.8-3,10.4-4.6c8.9-4.1,16.2,7.9,7.7,13.2
		c-7.3,4.6-17.2,6.1-25.6,6.8c-8.6,0.7-17.2-0.1-25.6-1.4c-9.2-1.5-18.2-3.8-26.8-7c-3.7-1.4-7.3-3.1-10.7-4.9l-1-0.5
		c-0.6-0.4-1.1-0.6-1.8-1c-0.6,5.8-2.5,11.4-4.8,16.8l-0.1-0.1c-1.2,4.3-5.7,6.9-10.2,5c-5.3-2.2-5.6-8-2.5-12.1l0.2-0.2
		c3.6-4.6,5.8-10.4,7.8-15.8c1-2.8,1.9-5.6,2.7-8.5C300.9,401.5,300.9,399.5,302.5,398z M437.5,351.7c-3.1,9.4-9.9,16.6-19.3,19.7
		s-19.7,2-29.3,0.3c-2.1-0.4-4.2-0.8-6.3-1.2c1.8,1.1,3.2,2.5,4.7,4.2c2.2,2.4,4.1,4.8,4.7,7.8c0.6,2.9-0.4,5.2-2,6.8
		c-2.6,2.5-6.8,3.9-10.4,4.7c-8,1.8-16,1.5-23.9-0.4c-2-0.4-3.4-1.6-4.2-3c-1-1.8-1.1-3.9-0.4-5.8c0.5-1.9,1.7-3.8,3.4-4.7
		c1.4-0.8,3.2-1.1,5.1-0.4c3.9,1.3,7.9,2.2,12.1,2.3c1.8,0,3.5,0,5.4-0.2c1-0.1,2-0.2,3-0.4c-0.6-0.8-1.1-1.6-1.7-2.4
		c-0.6-1-1.3-1.9-1.9-2.9c-1.8-2.8-3.2-5.7-4.5-8.8c-0.4-1-0.8-1.9-1.1-3c-0.1-0.2-0.1-0.3-0.2-0.4c-0.1-0.1-0.3-0.2-0.4-0.3
		c-2.5-2.2-4.6-4.8-6.1-8.2c-4-9-3.4-20.2-1-29.6c1.9-7.5,6.3-14.4,12-19.1c1-1.7,1.7-2.6,2.5-3.5c3.3-3.4,7.9-5.7,12.4-7.1
		c10-3.2,21-0.9,29.5,5.1c7.8,5.5,13.9,13.8,17.3,23.1C439.7,333.3,440.4,342.9,437.5,351.7z M300.9,294.7
		c11.9-0.1,24,3.4,33.7,10.4c9.3,6.8,16.5,16.7,16.5,28.5c0,11.6-6.1,22.9-13,31.8c-7.7,10-17.7,14.8-30.4,15
		c-6.6,0.1-13.2-0.5-19.7-1.3l-3.5-0.4c-4.8-0.6-9.7-1.3-14.2-3c-21.7-7.9-22.4-36.3-14.3-54.5c6.2-14,21.9-27.7,37.5-26.1
		C296,294.9,298.4,294.7,300.9,294.7z M321,308c-14.9-6.7-33.1-4.7-47.5,2.5c-5.7,6.2-9.9,14.1-11.7,21.4
		c-1.8,7.7-1.6,16.1,1.1,23.5c3.3,9.1,11.5,11.4,20.4,12.8l3.4,0.5l1.4,0.2c8.7,1.3,18.2,2.3,26.5,0.7c9.3-1.8,15.2-9.3,19.8-17
		l0.2-0.4c4.8-8.1,8.9-17.9,4.8-27.1C336.2,317.3,328.7,311.4,321,308z M409.2,310.4c-5.1-2.8-11-3.3-16.5-1.5
		c-2.4,0.8-4.5,2.1-6.4,3.6l-0.8,0.6c-2.5,1.8-4.7,2.8-6.6,5.4l-0.4,0.4c-1,1.4-2.5,1.9-4,1.8c-1.8,4.7-2.5,9.9-2.5,14.9v0.7v0.7
		c0.1,6,1.1,13.3,5.9,17.3c4.3,3.7,10.8,4.6,16.6,5l4.5,0.4l1.2,0.1c6.1,0.4,12.8,0.3,18-3.3c4.5-3.2,6.6-8.5,7.1-13.8
		C426.6,330.1,420.3,316.5,409.2,310.4z M297.6,311.5c8.2-4.2,18.1-3.2,25.1,2.1c-0.6,0.1-1.2,0.3-1.8,0.6c-1.6,0.8-2.5,2.4-2.9,4
		c-0.4,1.9,0.5,3.7,2.5,4.3c1.7,0.5,3.6,0.8,5.1-0.3c0.8-0.5,1.3-1.2,1.8-2.1l0.1-0.1l0.1-0.1l0,0c0,0,0,0-0.1,0.1
		c0.1-0.1,0.1-0.2,0.2-0.4c0.1-0.1,0.1-0.3,0.2-0.4c0.1-0.1,0.2-0.2,0.3-0.3c1.2,1.9,2.3,4.1,2.9,6.6c4,15.7-12.5,32-27.4,33.6
		c-5.6,0.6-10.7-0.7-14.9-3.3c0-0.1,0.1-0.1,0.1-0.2c1.7,0.3,3.8-0.4,4.4-2.4c1.6-4.8,0-10.5-5.4-12.1c-3.4-1.1-6.8,0.1-9.3,2.5
		c-1.8-4.5-2.5-9.6-1.7-14.7c1.2-7.2,5.5-13.6,12.3-16.6C292.2,311.2,295,310.8,297.6,311.5z M384.2,321.2l0.3-0.4
		c2.5-3.9,7.4-8.7,12.5-7.4c0.7,0.2,1.4,0.5,2,0.9c2.8-0.4,5.7,0.3,8.1,1.8l-0.1,0.2v0.1c-0.2,1-0.1,1.8,0.4,2.7
		c0.4,1,1.1,1.8,2.1,2.4c0.6,0.4,1.4,0.5,2.1,0.5c1.1,0,2-0.5,2.8-1.2c0.4-0.4,0.7-1,0.9-1.6c0.4,0.4,0.8,0.8,1.1,1.2
		c5.9,7.6,5,20-1.8,26.8c-0.3,0.3-0.5,0.5-0.9,0.8c-2.8,3.9-7.1,6.4-12.2,6.9c-4.7,0.5-9.6-1-13.2-3.8c0.3-0.2,0.5-0.4,0.8-0.6
		c0.6-0.7,1.1-1.4,1.5-2.3c0.1-0.2,0.2-0.4,0.3-0.6l0.1-0.4c0-0.1,0.2-0.6,0.2-0.5l0,0l0.1-0.2c0.6-1.7,0.4-3.5-1.1-4.6l-0.2-0.1
		c-0.5-0.3-1.1-0.4-1.8-0.4c-1.6-1.9-3.9-2.4-6.1-1.8l-0.1-0.6c0-0.1,0-0.2,0-0.4C380.1,333.1,380.9,326.6,384.2,321.2z M308.1,264
		l0.5-0.1c4.3-0.6,7.2,0.1,10,3.8c1.3,1.8,1,4.4,0,6.2c-3,5.8-11.1,4.6-16.7,5.7c-5.4,1.1-10.8,2.6-15.8,4.9c-5.2,2.3-10,4.9-14.7,8
		c-4.3,2.8-8.2,6.9-13,8.6c-0.2,0.1-0.5-0.1-0.4-0.4c0.4-5.5,5-10.6,8.6-14.6c4.1-4.6,9.2-8.6,14.5-11.8c5.4-3.3,11.2-6.1,17.4-8
		C301.5,265.3,304.8,264.5,308.1,264z M373.7,271.4c5.4-7.9,18.9-6.4,26.8-4.3c10,2.6,20.8,8,27.8,15.8c6.2,6.9-3.1,16-10.2,10.2
		l-1.8-1.6l-1.2-1c-5.4-4.4-10.8-8.4-17.4-11.3c-7.7-3.4-15.5-5.1-23.7-6.9C373.7,272.2,373.5,271.8,373.7,271.4z"/>
</g>
</svg>
