<?xml version="1.0" encoding="UTF-8"?>
<svg id="Calque_1" data-name="Calque 1" xmlns="http://www.w3.org/2000/svg" viewBox="0 0 372.95 420.41">
  <defs>
    <style>
      .cls-1 {
        fill: #fff;
      }

      .cls-1, .cls-2 {
        fill-rule: evenodd;
      }
    </style>
  </defs>
  <g id="head_mono_Short-5" data-name="head/mono/Short-5">
    <path id="_-Background" data-name="ðŸŽ¨-Background" class="cls-1" d="m192.04,18.48c56.78,0,115.51,40.14,136.32,65.75,17.5,21.53,26.92,118.91,26.92,184.72,0,13.76,8.33,39.71,5.9,52.87-8.91,48.24-47.71,88.7-124.51,88.7s-131.86-27.76-188.94-102.3c-27.7,0-41.12-19.37-41.32-49.94-.13-20.38,8.78-34.28,26.74-41.69-6.4-80.42-1.54-131.1,14.58-152.04,24.18-31.41,87.53-46.07,144.31-46.07Z"/>
    <path id="_-Ink" data-name="ðŸ–-Ink" class="cls-2" d="m168.15,1.42c35.85-3.31,70.98-.53,106.31,5.23,2.7.45,4.23,2.06,4.8,4,16.64.69,33.3,1.81,49.92,2.64,6.03.3,9.45,5.74,6.7,10.64-.55.97-1.12,1.92-1.7,2.87l.73-.22c5-1.46,10.4-2.18,15.27.14,6.2,2.95,8.63,9.47,7.26,15.48-.35,1.53-.94,3-1.61,4.43,1.36-.08,2.73-.05,4.09.11,7.24.88,12.62,5.94,13,12.68.56,10.18-6.63,20.5-15.1,27.79,1.23,2.31,1.7,5.03,1.19,7.78-1.02,5.44-5.42,8.7-10.52,10.83,2.13,6.16,3.13,12.59,2.54,19.17-.2,2.2-2.3,4.01-4.53,4.46,8.29,20.81,12.48,43.14,15.5,64.91,2.15,15.49,3.21,31.06,3.34,46.67.06,7.04-.06,14.1-.39,21.14l-.13,2.64c-.4,7.62-.42,15.61-1.92,23.15,5.12,7.94,7.18,17.8,8.05,26.7,1.08,11.02-.63,22.38-4.44,32.86-14.38,39.6-57.78,64.59-101.37,71.08-40.35,6.01-87.04-2.08-110.62-35.5-.37-.53.42-.97.88-.62,16.87,12.51,36.44,18.09,57.7,20.81,36.76,4.69,78.08-3.26,107.58-24.35,14.16-10.12,24.37-24.86,28.86-40.72,2.29-8.11,3.08-16.56,2.18-24.91-.92-8.46-5.03-15.69-7.62-23.68-.87-2.7.05-5.21,1.86-6.99.51-6.49,1.71-13.04,2.17-19.52.51-7.36.82-14.72.93-22.09.21-15.28-.49-30.6-1.9-45.82-2.58-27.87-9.43-55.07-13.45-82.7-1.49,1.22-3.62,1.72-5.86.65l-.23-.12-1.22-.64c-.07,0-.15,0-.22.02-8.35.74-17.01-.32-25.01-2.59-8.37-2.37-16.14-6.02-23.08-10.88-1.32,6.1-1.87,12.27-1.88,18.48-.01,3.89-4.52,5.9-8.1,4.24-15.87-7.35-31.03-15.82-45.42-25.34-1.68,7.85-3.36,15.7-5.05,23.56-.65,3.03-4.88,4.25-7.59,2.81-10.78-5.72-20.09-13.21-27.67-22.11-1.51,2.64-3.03,5.28-4.56,7.91l-2.3,3.94c-2.27,3.88-5.31,8.16-10.28,9.4-5.26,1.31-9.65-1.8-11.42-6.14-.54-1.35-1.04-2.74-1.5-4.13-4.48,9.33-9.54,18.45-15.26,27.15-8.58,13.05-18.88,24.68-29.15,36.61-3.12,3.62-8.46.16-8.89-3.36-.25-2.07-.46-4.15-.64-6.22-5.98,11.01-12.23,21.92-19.03,32.52l.97,3.48h0c2.81,10.29,5.14,20.64,7.67,30.98.82,3.34-1.13,8.11-5.4,8.67-5.11.68-9.94,3.06-15.17,1.42-5.7-1.79-6.83-6.28-9.52-10.54-.54-.85-1.16-1.63-1.83-2.37l-.17.2h0c-.42.5-1.42-.04-1.17-.62l.29-.66h0c-2.31-2.24-5.08-4.11-7.63-6.12-6.05-.93-12.85.09-17.02,2.33-9.49,5.11-13.85,15.63-13.94,25.31-.11,11.33,3.74,24.06,10.24,33.74,2.86,4.26,6.78,8.11,11.96,10,5.14,1.88,10.71,1.3,15.94,3.06,3.46,1.18,5.59,4.68,3.5,7.85-.14.22-.3.42-.45.63l1.56,1.88c1.07,1.3,2.19,2.7,3.23,4.15,2.66,2.79,5.46,5.48,8.17,8.23,5.01,5.06,9.87,10.26,14.8,15.39,4.65,4.84,9.57,9.39,14.64,13.87,4.79,4.24,10.77,7.81,15.17,12.33,4.28,4.41,5.44,12.12-1.6,14.67-7.79,2.83-14.68-3.81-19.93-8.23l-.22-.19c-9.61-8.07-18.29-17.28-25.18-27.43-6.83,4.24-16.7,4.64-23.5.41-3.58-2.23-6.32-5.98-7.66-10.05-1.26.26-2.51.41-3.74.39-.63.33-1.26.66-1.9.96-5.07,2.41-11.3,1.33-13.62-3.79-2.11-4.65.06-9.92,1.97-14.4l.39-.92c1.08-2.55,2.27-5.33,3.75-7.95-4.12-2.83-7.64-6.34-10.62-10.33-10.01-13.45-15.01-33.12-12.8-49.17,1.33-9.69,6.32-19.72,14.49-26.25l-.3-.71h0c-2.29-5.3-4.37-10.62-5.72-16.21-1.58-6.55-2.35-13.33-3.05-20-1.48-14.08-1.08-28.48.89-42.51,3.7-26.4,13.08-52.32,29.73-74.29-4.72-5.15-8.46-11.22-6.51-18.19.89-3.2,2.92-6.24,5.98-8.07,1.69-1.01,3.7-1.17,5.39-2.01l.51-.26c.74-.4.17-.35-.27-2.19-1.75-7.33-.3-14.42,8.55-16.85,8.33-2.29,16.21,2.57,21.14,8.36,12.9-8.35,29.9-12.71,44.85-16.42,17-4.21,34.44-6.83,51.95-8.45ZM28.81,247.38c-.06-5.97,6.15-9.66,12.26-8.68,4.1.65,7.53,2.88,10.74,5.19l1.57,1.13c3.91,2.8,8.41,5.82,10.74,9.79,3.42,5.85-3.81,13.73-10.56,9.63-4.63-2.83-7.6-7.36-10.64-11.58l-.31-.43c-1.38-1.89-2.59-3.89-4.48-5.41l-.41-.33c-.62-.48-1.29-.92-2.09-1.13-1.55-.41-4.42.16-5.1,1.84l-.06.17c-.25.85-1.65.67-1.66-.2Z"/>
  </g>
  <g id="face_Driven" data-name="face/Driven">
    <path id="_-Ink-2" data-name="ðŸ–-Ink" class="cls-2" d="m265.8,329.92c-6.79,2.43-14.81,3.01-21.81.93-6.7-1.98-12.78-6.4-16.46-11.95-3.28-4.94-4.65-10.81-2.71-16.66.09-.28.39-.46.68-.53,1.58,1.32,2.56,2.62,3.54,3.92,1.65,2.19,3.3,4.36,5.57,6.24,3.3,2.73,7.75,4.94,12.16,5.67,4.32.72,8.75.08,12.62-1.8,2.35-1.15,4.26-2.68,6.14-4.22,2.05-1.68,4.07-3.38,6.9-4.33,2.26-.76,4.64-.12,6.47,1.15,1.96,1.36,3.38,3.5,3.3,5.73-.12,3.46-1.78,6.35-4.19,8.73-3.26,3.22-7.86,5.54-12.22,7.1Zm-8.06-86.23c7.55,4.19,19.06,13.95,10.93,24.32-9.56,9.15-23.33-1.34-30.11-6.09-6.29-3.68-13.36,5.78-7.52,10.07,49.02,33.1,68.92-27.22,30.52-33.23-4.23-.66-5.8,3.63-3.82,4.92Zm-79.43-58c10.29-.45,19.36,3.77,29.17,5.68,9.06,1.77,17.99.71,26.81-1.54,14.31-3.66,20.22,16.32,6.11,20.21-10.28,2.83-21.1,3.03-31.64,1.57-9.37-1.3-17.22-5.46-26.15-7.88-7.66-2.08-16.68-1.21-24.78-.24l-3.14.39c-4.67.57-9.36,1.15-13.99,1.98-4.01.72-8.02,2.05-12.11,2.2-.47.02-.86-.53-.57-.9,4.76-5.96,13.92-10.66,21.22-13.79l.49-.21c9-3.83,18.55-7.03,28.58-7.47Zm-3.77,43.92v-.21c.01-5.82,3.73-19.09,12.91-19.09,5.73,0,9.22,9.04,9.82,18.35l.02.38c.27,5.79-1.48,18.45-9.84,18.45s-12.82-11.99-12.91-17.88h0Zm135.16,0v-.21c-.01-5.82-3.73-19.09-12.91-19.09-5.59,0-9.04,8.59-9.77,17.65l-.05.7c-.36,5.6,1.27,18.83,9.82,18.83s12.82-11.99,12.91-17.88h0Zm-.14-51h.66c10.73.35,21.76,6.15,24.63,15.88.15.51-.54.85-.94.5-8.82-7.53-20.68-.33-29.52,3.44l-3.24,1.37c-11.39,4.83-24.34,10.51-36.98,6.91-6.01-1.71-9.82-7.34-8.11-13.02,1.52-5.06,8.22-9.31,14.01-7.48l.26.09c4.71,1.64,10.5-.02,15.37-1.66l4-1.37c6.43-2.22,12.88-4.71,19.87-4.65h0Z"/>
  </g>
</svg>