<?xml version="1.0" encoding="UTF-8"?>
<svg id="Calque_1" data-name="Calque 1" xmlns="http://www.w3.org/2000/svg" viewBox="0 0 372.95 460.99">
  <defs>
    <style>
      .cls-1 {
        fill: #fff;
      }

      .cls-1, .cls-2 {
        fill-rule: evenodd;
      }
    </style>
  </defs>
  <g id="head_mono_Short-5" data-name="head/mono/Short-5">
    <path id="_-Background" data-name="ðŸŽ¨-Background" class="cls-1" d="m192.04,20.26c56.78,0,115.51,44.01,136.32,72.1,17.5,23.61,26.92,130.39,26.92,202.55,0,15.09,8.33,43.54,5.9,57.98-8.91,52.9-47.71,97.26-124.51,97.26s-131.86-30.44-188.94-112.17c-27.7,0-41.12-21.24-41.32-54.76-.13-22.35,8.78-37.58,26.74-45.71-6.4-88.19-1.54-143.76,14.58-166.72,24.18-34.44,87.53-50.52,144.31-50.52Z"/>
    <path id="_-Ink" data-name="ðŸ–-Ink" class="cls-2" d="m168.15,1.56c35.85-3.63,70.98-.58,106.31,5.73,2.7.49,4.23,2.26,4.8,4.39,16.64.76,33.3,1.98,49.92,2.89,6.03.33,9.45,6.29,6.7,11.67-.55,1.07-1.12,2.11-1.7,3.15l.73-.24c5-1.6,10.4-2.39,15.27.15,6.2,3.24,8.63,10.39,7.26,16.97-.35,1.68-.94,3.29-1.61,4.86,1.36-.09,2.73-.06,4.09.12,7.24.96,12.62,6.51,13,13.9.56,11.16-6.63,22.48-15.1,30.47,1.23,2.53,1.7,5.51,1.19,8.53-1.02,5.97-5.42,9.54-10.52,11.88,2.13,6.75,3.13,13.81,2.54,21.02-.2,2.41-2.3,4.4-4.53,4.88,8.29,22.81,12.48,47.31,15.5,71.18,2.15,16.98,3.21,34.06,3.34,51.17.06,7.72-.06,15.46-.39,23.18l-.13,2.9c-.4,8.35-.42,17.12-1.92,25.38,5.12,8.71,7.18,19.52,8.05,29.28,1.08,12.08-.63,24.54-4.44,36.03-14.38,43.42-57.78,70.82-101.37,77.94-40.35,6.59-87.04-2.28-110.62-38.93-.37-.58.42-1.06.88-.68,16.87,13.72,36.44,19.84,57.7,22.82,36.76,5.14,78.08-3.58,107.58-26.7,14.16-11.1,24.37-27.26,28.86-44.65,2.29-8.89,3.08-18.16,2.18-27.31-.92-9.28-5.03-17.2-7.62-25.97-.87-2.96.05-5.71,1.86-7.67.51-7.12,1.71-14.3,2.17-21.4.51-8.07.82-16.14.93-24.22.21-16.76-.49-33.55-1.9-50.24-2.58-30.56-9.43-60.38-13.45-90.68-1.49,1.33-3.62,1.88-5.86.72l-.23-.13-1.22-.7c-.07,0-.15,0-.22.02-8.35.81-17.01-.35-25.01-2.84-8.37-2.6-16.14-6.6-23.08-11.93-1.32,6.69-1.87,13.45-1.88,20.27-.01,4.26-4.52,6.47-8.1,4.65-15.87-8.06-31.03-17.35-45.42-27.79-1.68,8.61-3.36,17.22-5.05,25.84-.65,3.32-4.88,4.66-7.59,3.08-10.78-6.27-20.09-14.48-27.67-24.24-1.51,2.89-3.03,5.79-4.56,8.67l-2.3,4.33c-2.27,4.25-5.31,8.95-10.28,10.31-5.26,1.44-9.65-1.97-11.42-6.73-.54-1.48-1.04-3-1.5-4.53-4.48,10.23-9.54,20.23-15.26,29.77-8.58,14.31-18.88,27.06-29.15,40.14-3.12,3.97-8.46.18-8.89-3.68-.25-2.27-.46-4.55-.64-6.82-5.98,12.08-12.23,24.04-19.03,35.65l.97,3.82h0c2.81,11.28,5.14,22.64,7.67,33.97.82,3.66-1.13,8.89-5.4,9.51-5.11.74-9.94,3.35-15.17,1.56-5.7-1.96-6.83-6.89-9.52-11.56-.54-.93-1.16-1.79-1.83-2.6l-.17.22h0c-.42.55-1.42-.05-1.17-.68l.29-.73h0c-2.31-2.46-5.08-4.5-7.63-6.71-6.05-1.02-12.85.1-17.02,2.55-9.49,5.6-13.85,17.14-13.94,27.75-.11,12.42,3.74,26.38,10.24,37,2.86,4.67,6.78,8.89,11.96,10.96,5.14,2.06,10.71,1.42,15.94,3.36,3.46,1.29,5.59,5.13,3.5,8.61-.14.24-.3.46-.45.69l1.56,2.06c1.07,1.43,2.19,2.96,3.23,4.55,2.66,3.06,5.46,6.01,8.17,9.02,5.01,5.55,9.87,11.25,14.8,16.88,4.65,5.31,9.57,10.3,14.64,15.21,4.79,4.65,10.77,8.56,15.17,13.52,4.28,4.84,5.44,13.29-1.6,16.09-7.79,3.11-14.68-4.17-19.93-9.03l-.22-.2c-9.61-8.85-18.29-18.95-25.18-30.08-6.83,4.65-16.7,5.09-23.5.45-3.58-2.45-6.32-6.55-7.66-11.02-1.26.28-2.51.45-3.74.43-.63.37-1.26.72-1.9,1.05-5.07,2.64-11.3,1.46-13.62-4.15-2.11-5.09.06-10.88,1.97-15.79l.39-1.01c1.08-2.8,2.27-5.85,3.75-8.72-4.12-3.1-7.64-6.95-10.62-11.33-10.01-14.75-15.01-36.32-12.8-53.92,1.33-10.62,6.32-21.62,14.49-28.78l-.3-.78h0c-2.29-5.81-4.37-11.64-5.72-17.78-1.58-7.18-2.35-14.62-3.05-21.93-1.48-15.44-1.08-31.23.89-46.61,3.7-28.95,13.08-57.37,29.73-81.46-4.72-5.65-8.46-12.3-6.51-19.95.89-3.51,2.92-6.84,5.98-8.85,1.69-1.11,3.7-1.28,5.39-2.2l.51-.28c.74-.43.17-.39-.27-2.4-1.75-8.04-.3-15.81,8.55-18.48,8.33-2.51,16.21,2.82,21.14,9.17,12.9-9.15,29.9-13.94,44.85-18.01,17-4.61,34.44-7.49,51.95-9.27ZM28.81,271.26c-.06-6.55,6.15-10.59,12.26-9.52,4.1.71,7.53,3.16,10.74,5.69l1.57,1.24c3.91,3.07,8.41,6.39,10.74,10.74,3.42,6.42-3.81,15.06-10.56,10.56-4.63-3.1-7.6-8.07-10.64-12.69l-.31-.48c-1.38-2.07-2.59-4.27-4.48-5.93l-.41-.36c-.62-.53-1.29-1.01-2.09-1.24-1.55-.45-4.42.18-5.1,2.02l-.06.19c-.25.93-1.65.73-1.66-.22Z"/>
  </g>
  <g id="face_Driven" data-name="face/Driven">
    <path id="_-Ink-2" data-name="ðŸ–-Ink" class="cls-2" d="m265.8,361.76c-6.79,2.67-14.81,3.3-21.81,1.03-6.7-2.17-12.78-7.01-16.46-13.1-3.28-5.42-4.65-11.85-2.71-18.26.09-.31.39-.5.68-.58,1.58,1.44,2.56,2.88,3.54,4.3,1.65,2.4,3.3,4.78,5.57,6.84,3.3,2.99,7.75,5.42,12.16,6.22,4.32.79,8.75.09,12.62-1.98,2.35-1.26,4.26-2.94,6.14-4.63,2.05-1.84,4.07-3.71,6.9-4.74,2.26-.83,4.64-.13,6.47,1.26,1.96,1.5,3.38,3.84,3.3,6.29-.12,3.79-1.78,6.96-4.19,9.57-3.26,3.53-7.86,6.07-12.22,7.78Zm-8.06-94.55c7.55,4.59,19.06,15.29,10.93,26.67-9.56,10.03-23.33-1.47-30.11-6.67-6.29-4.03-13.36,6.34-7.52,11.05,49.02,36.3,68.92-29.85,30.52-36.44-4.23-.73-5.8,3.98-3.82,5.4Zm-79.43-63.6c10.29-.49,19.36,4.13,29.17,6.23,9.06,1.94,17.99.78,26.81-1.69,14.31-4.01,20.22,17.89,6.11,22.16-10.28,3.11-21.1,3.32-31.64,1.72-9.37-1.42-17.22-5.98-26.15-8.64-7.66-2.28-16.68-1.33-24.78-.26l-3.14.42c-4.67.63-9.36,1.26-13.99,2.17-4.01.79-8.02,2.24-12.11,2.41-.47.02-.86-.58-.57-.99,4.76-6.53,13.92-11.68,21.22-15.12l.49-.23c9-4.2,18.55-7.71,28.58-8.19Zm-3.77,48.16v-.23c.01-6.38,3.73-20.94,12.91-20.94,5.73,0,9.22,9.91,9.82,20.12l.02.42c.27,6.35-1.48,20.23-9.84,20.23s-12.82-13.15-12.91-19.61h0Zm135.16,0v-.23c-.01-6.38-3.73-20.94-12.91-20.94-5.59,0-9.04,9.42-9.77,19.36l-.05.77c-.36,6.14,1.27,20.65,9.82,20.65s12.82-13.15,12.91-19.61h0Zm-.14-55.92h.66c10.73.39,21.76,6.74,24.63,17.42.15.55-.54.93-.94.55-8.82-8.26-20.68-.37-29.52,3.77l-3.24,1.5c-11.39,5.3-24.34,11.53-36.98,7.58-6.01-1.88-9.82-8.04-8.11-14.28,1.52-5.54,8.22-10.2,14.01-8.2l.26.1c4.71,1.8,10.5-.02,15.37-1.82l4-1.5c6.43-2.44,12.88-5.17,19.87-5.1h0Z"/>
  </g>
</svg>